/*
 Navicat MongoDB Data Transfer

 Source Server         : xuecheng-cms
 Source Server Type    : MongoDB
 Source Server Version : 30425
 Source Host           : localhost:27017
 Source Schema         : xc_media

 Target Server Type    : MongoDB
 Target Server Version : 30425
 File Encoding         : 65001

 Date: 03/08/2020 19:26:13
*/


// ----------------------------
// Collection structure for media_file
// ----------------------------
db.getCollection("media_file").drop();
db.createCollection("media_file");

// ----------------------------
// Documents of media_file
// ----------------------------
db.getCollection("media_file").insert([ {
    _id: "c5c75d70f382e6016d2f506d134eee11",
    fileName: "c5c75d70f382e6016d2f506d134eee11.avi",
    fileOriginalName: "lucene.avi",
    filePath: "/c/5/c5c75d70f382e6016d2f506d134eee11/",
    fileUrl: "/c/5/c5c75d70f382e6016d2f506d134eee11/hls/c5c75d70f382e6016d2f506d134eee11.m3u8",
    fileType: "avi",
    mimeType: "video/avi",
    fileSize: NumberLong("52553728"),
    fileStatus: "301002",
    uploadTime: ISODate("2020-05-21T01:31:31.306Z"),
    processStatus: "303002",
    "mediaFileProcess_m3u8": {
        tslist: [
            "c5c75d70f382e6016d2f506d134eee11_00000.ts",
            "c5c75d70f382e6016d2f506d134eee11_00001.ts",
            "c5c75d70f382e6016d2f506d134eee11_00002.ts",
            "c5c75d70f382e6016d2f506d134eee11_00003.ts",
            "c5c75d70f382e6016d2f506d134eee11_00004.ts",
            "c5c75d70f382e6016d2f506d134eee11_00005.ts",
            "c5c75d70f382e6016d2f506d134eee11_00006.ts",
            "c5c75d70f382e6016d2f506d134eee11_00007.ts",
            "c5c75d70f382e6016d2f506d134eee11_00008.ts",
            "c5c75d70f382e6016d2f506d134eee11_00009.ts",
            "c5c75d70f382e6016d2f506d134eee11_00010.ts",
            "c5c75d70f382e6016d2f506d134eee11_00011.ts",
            "c5c75d70f382e6016d2f506d134eee11_00012.ts",
            "c5c75d70f382e6016d2f506d134eee11_00013.ts",
            "c5c75d70f382e6016d2f506d134eee11_00014.ts",
            "c5c75d70f382e6016d2f506d134eee11_00015.ts",
            "c5c75d70f382e6016d2f506d134eee11_00016.ts",
            "c5c75d70f382e6016d2f506d134eee11_00017.ts",
            "c5c75d70f382e6016d2f506d134eee11_00018.ts",
            "c5c75d70f382e6016d2f506d134eee11_00019.ts",
            "c5c75d70f382e6016d2f506d134eee11_00020.ts",
            "c5c75d70f382e6016d2f506d134eee11_00021.ts",
            "c5c75d70f382e6016d2f506d134eee11_00022.ts",
            "c5c75d70f382e6016d2f506d134eee11_00023.ts",
            "c5c75d70f382e6016d2f506d134eee11_00024.ts",
            "c5c75d70f382e6016d2f506d134eee11_00025.ts",
            "c5c75d70f382e6016d2f506d134eee11_00026.ts",
            "c5c75d70f382e6016d2f506d134eee11_00027.ts",
            "c5c75d70f382e6016d2f506d134eee11_00028.ts",
            "c5c75d70f382e6016d2f506d134eee11_00029.ts",
            "c5c75d70f382e6016d2f506d134eee11_00030.ts",
            "c5c75d70f382e6016d2f506d134eee11_00031.ts",
            "c5c75d70f382e6016d2f506d134eee11_00032.ts",
            "c5c75d70f382e6016d2f506d134eee11_00033.ts",
            "c5c75d70f382e6016d2f506d134eee11_00034.ts",
            "c5c75d70f382e6016d2f506d134eee11_00035.ts",
            "c5c75d70f382e6016d2f506d134eee11_00036.ts",
            "c5c75d70f382e6016d2f506d134eee11_00037.ts",
            "c5c75d70f382e6016d2f506d134eee11_00038.ts",
            "c5c75d70f382e6016d2f506d134eee11_00039.ts",
            "c5c75d70f382e6016d2f506d134eee11_00040.ts",
            "c5c75d70f382e6016d2f506d134eee11_00041.ts",
            "c5c75d70f382e6016d2f506d134eee11_00042.ts",
            "c5c75d70f382e6016d2f506d134eee11_00043.ts",
            "c5c75d70f382e6016d2f506d134eee11_00044.ts",
            "c5c75d70f382e6016d2f506d134eee11_00045.ts",
            "c5c75d70f382e6016d2f506d134eee11_00046.ts",
            "c5c75d70f382e6016d2f506d134eee11_00047.ts",
            "c5c75d70f382e6016d2f506d134eee11_00048.ts",
            "c5c75d70f382e6016d2f506d134eee11_00049.ts",
            "c5c75d70f382e6016d2f506d134eee11_00050.ts",
            "c5c75d70f382e6016d2f506d134eee11_00051.ts",
            "c5c75d70f382e6016d2f506d134eee11_00052.ts",
            "c5c75d70f382e6016d2f506d134eee11_00053.ts",
            "c5c75d70f382e6016d2f506d134eee11_00054.ts",
            "c5c75d70f382e6016d2f506d134eee11_00055.ts",
            "c5c75d70f382e6016d2f506d134eee11_00056.ts",
            "c5c75d70f382e6016d2f506d134eee11_00057.ts",
            "c5c75d70f382e6016d2f506d134eee11_00058.ts",
            "c5c75d70f382e6016d2f506d134eee11_00059.ts",
            "c5c75d70f382e6016d2f506d134eee11_00060.ts",
            "c5c75d70f382e6016d2f506d134eee11_00061.ts",
            "c5c75d70f382e6016d2f506d134eee11_00062.ts",
            "c5c75d70f382e6016d2f506d134eee11_00063.ts"
        ]
    },
    _class: "com.xuecheng.framework.domain.media.MediaFile"
} ]);
db.getCollection("media_file").insert([ {
    _id: "759dea2fc884d7cab88173064fcfde69",
    fileName: "759dea2fc884d7cab88173064fcfde69.avi",
    fileOriginalName: "11-在线学习接口-需求分析.avi",
    filePath: "/7/5/759dea2fc884d7cab88173064fcfde69/",
    fileUrl: "/7/5/759dea2fc884d7cab88173064fcfde69/hls/759dea2fc884d7cab88173064fcfde69.m3u8",
    fileType: "avi",
    mimeType: "video/avi",
    fileSize: NumberLong("5687808"),
    fileStatus: "301002",
    uploadTime: ISODate("2020-05-21T01:57:02.219Z"),
    processStatus: "303002",
    "mediaFileProcess_m3u8": {
        tslist: [
            "759dea2fc884d7cab88173064fcfde69_00000.ts",
            "759dea2fc884d7cab88173064fcfde69_00001.ts",
            "759dea2fc884d7cab88173064fcfde69_00002.ts",
            "759dea2fc884d7cab88173064fcfde69_00003.ts",
            "759dea2fc884d7cab88173064fcfde69_00004.ts",
            "759dea2fc884d7cab88173064fcfde69_00005.ts",
            "759dea2fc884d7cab88173064fcfde69_00006.ts",
            "759dea2fc884d7cab88173064fcfde69_00007.ts",
            "759dea2fc884d7cab88173064fcfde69_00008.ts",
            "759dea2fc884d7cab88173064fcfde69_00009.ts",
            "759dea2fc884d7cab88173064fcfde69_00010.ts",
            "759dea2fc884d7cab88173064fcfde69_00011.ts",
            "759dea2fc884d7cab88173064fcfde69_00012.ts",
            "759dea2fc884d7cab88173064fcfde69_00013.ts"
        ]
    },
    _class: "com.xuecheng.framework.domain.media.MediaFile"
} ]);
db.getCollection("media_file").insert([ {
    _id: "6433de45debca3a7931b72c4650795aa",
    fileName: "6433de45debca3a7931b72c4650795aa.avi",
    fileOriginalName: "18-在线学习接口-前端开发-自动播放视频.avi",
    filePath: "/6/4/6433de45debca3a7931b72c4650795aa/",
    fileUrl: "/6/4/6433de45debca3a7931b72c4650795aa/18-在线学习接口-前端开发-自动播放视频.avi.avi",
    fileType: "avi",
    mimeType: "video/avi",
    fileSize: NumberLong("44417024"),
    fileStatus: "301002",
    uploadTime: ISODate("2020-05-22T08:08:11.483Z"),
    processStatus: "303003",
    "mediaFileProcess_m3u8": {
        errormsg: "ffmpeg version git-2020-03-15-c467328 Copyright (c) 2000-2020 the FFmpeg developers\r\n  built with gcc 9.2.1 (GCC) 20200122\r\n  configuration: --enable-gpl --enable-version3 --enable-sdl2 --enable-fontconfig --enable-gnutls --enable-iconv --enable-libass --enable-libdav1d --enable-libbluray --enable-libfreetype --enable-libmp3lame --enable-libopencore-amrnb --enable-libopencore-amrwb --enable-libopenjpeg --enable-libopus --enable-libshine --enable-libsnappy --enable-libsoxr --enable-libtheora --enable-libtwolame --enable-libvpx --enable-libwavpack --enable-libwebp --enable-libx264 --enable-libx265 --enable-libxml2 --enable-libzimg --enable-lzma --enable-zlib --enable-gmp --enable-libvidstab --enable-libvorbis --enable-libvo-amrwbenc --enable-libmysofa --enable-libspeex --enable-libxvid --enable-libaom --enable-libmfx --enable-ffnvcodec --enable-cuda-llvm --enable-cuvid --enable-d3d11va --enable-nvenc --enable-nvdec --enable-dxva2 --enable-avisynth --enable-libopenmpt --enable-amf\r\n  libavutil      56. 42.100 / 56. 42.100\r\n  libavcodec     58. 75.100 / 58. 75.100\r\n  libavformat    58. 41.100 / 58. 41.100\r\n  libavdevice    58.  9.103 / 58.  9.103\r\n  libavfilter     7. 77.100 /  7. 77.100\r\n  libswscale      5.  6.101 /  5.  6.101\r\n  libswresample   3.  6.100 /  3.  6.100\r\n  libpostproc    55.  6.100 / 55.  6.100\r\nInput #0, mov,mp4,m4a,3gp,3g2,mj2, from 'E:/Project/XueChengOnline/xcEduUI01/xuecheng/video//6/4/6433de45debca3a7931b72c4650795aa/6433de45debca3a7931b72c4650795aa.mp4':\r\n  Metadata:\r\n    major_brand     : isom\r\n    minor_version   : 512\r\n    compatible_brands: isomiso2avc1mp41\r\n    encoder         : Lavf58.41.100\r\n  Duration: 00:16:28.05, start: 0.000000, bitrate: 497 kb/s\r\n    Stream #0:0(und): Video: h264 (High) (avc1 / 0x31637661), yuv420p, 1280x720, 426 kb/s, 18 fps, 18 tbr, 18432 tbn, 36 tbc (default)\r\n    Metadata:\r\n      handler_name    : VideoHandler\r\n    Stream #0:1(und): Audio: aac (LC) (mp4a / 0x6134706D), 44100 Hz, mono, fltp, 63 kb/s (default)\r\n    Metadata:\r\n      handler_name    : SoundHandler\r\nStream mapping:\r\n  Stream #0:0 -> #0:0 (h264 (native) -> h264 (libx264))\r\n  Stream #0:1 -> #0:1 (aac (native) -> aac (native))\r\nPress [q] to stop, [?] for help\r\n[libx264 @ 000002ae472a2600] using cpu capabilities: MMX2 SSE2Fast SSSE3 SSE4.2 AVX\r\n[libx264 @ 000002ae472a2600] profile High, level 3.1, 4:2:0, 8-bit\r\n[libx264 @ 000002ae472a2600] 264 - core 159 - H.264/MPEG-4 AVC codec - Copyleft 2003-2019 - http://www.videolan.org/x264.html - options: cabac=1 ref=3 deblock=1:0:0 analyse=0x3:0x113 me=hex subme=7 psy=1 psy_rd=1.00:0.00 mixed_ref=1 me_range=16 chroma_me=1 trellis=1 8x8dct=1 cqm=0 deadzone=21,11 fast_pskip=1 chroma_qp_offset=-2 threads=22 lookahead_threads=3 sliced_threads=0 nr=0 decimate=1 interlaced=0 bluray_compat=0 constrained_intra=0 bframes=3 b_pyramid=2 b_adapt=1 b_bias=0 direct=1 weightb=1 open_gop=0 weightp=2 keyint=250 keyint_min=18 scenecut=40 intra_refresh=0 rc_lookahead=40 rc=crf mbtree=1 crf=23.0 qcomp=0.60 qpmin=0 qpmax=69 qpstep=4 ip_ratio=1.40 aq=1:1.00\r\nOutput #0, hls, to 'E:/Project/XueChengOnline/xcEduUI01/xuecheng/video//6/4/6433de45debca3a7931b72c4650795aa/hls/6433de45debca3a7931b72c4650795aa.m3u8':\r\n  Metadata:\r\n    major_brand     : isom\r\n    minor_version   : 512\r\n    compatible_brands: isomiso2avc1mp41\r\n    encoder         : Lavf58.41.100\r\n    Stream #0:0(und): Video: h264 (libx264), yuv420p, 1280x720, q=-1--1, 18 fps, 90k tbn, 18 tbc (default)\r\n    Metadata:\r\n      handler_name    : VideoHandler\r\n      encoder         : Lavc58.75.100 libx264\r\n    Side data:\r\n      cpb: bitrate max/min/avg: 0/0/0 buffer size: 0 vbv_delay: N/A\r\n    Stream #0:1(und): Audio: aac (LC), 44100 Hz, mono, fltp, 69 kb/s (default)\r\n    Metadata:\r\n      handler_name    : SoundHandler\r\n      encoder         : Lavc58.75.100 aac\r\nframe=   88 fps=0.0 q=27.0 size=N/A time=00:00:05.66 bitrate=N/A speed=11.3x    \rframe=  262 fps=261 q=27.0 size=N/A time=00:00:15.32 bitrate=N/A speed=15.3x    \r[hls @ 000002ae4742ab40] Opening 'E:/Project/XueChengOnline/xcEduUI01/xuecheng/video//6/4/6433de45debca3a7931b72c4650795aa/hls/6433de45debca3a7931b72c4650795aa_00000.ts' for writing\r\n[hls @ 000002ae4742ab40] Opening 'E:/Project/XueChengOnline/xcEduUI01/xuecheng/video//6/4/6433de45debca3a7931b72c4650795aa/hls/6433de45debca3a7931b72c4650795aa.m3u8.tmp' for writing\r\nframe=  450 fps=299 q=27.0 size=N/A time=00:00:25.77 bitrate=N/A speed=17.1x    \r[hls @ 000002ae4742ab40] Opening 'E:/Project/XueChengOnline/xcEduUI01/xuecheng/video//6/4/6433de45debca3a7931b72c4650795aa/hls/6433de45debca3a7931b72c4650795aa_00001.ts' for writing\r\n[hls @ 000002ae4742ab40] Opening 'E:/Project/XueChengOnline/xcEduUI01/xuecheng/video//6/4/6433de45debca3a7931b72c4650795aa/hls/6433de45debca3a7931b72c4650795aa.m3u8.tmp' for writing\r\nframe=  658 fps=328 q=27.0 size=N/A time=00:00:37.31 bitrate=N/A speed=18.6x    \r[hls @ 000002ae4742ab40] Opening 'E:/Project/XueChengOnline/xcEduUI01/xuecheng/video//6/4/6433de45debca3a7931b72c4650795aa/hls/6433de45debca3a7931b72c4650795aa_00002.ts' for writing\r\n[hls @ 000002ae4742ab40] Opening 'E:/Project/XueChengOnline/xcEduUI01/xuecheng/video//6/4/6433de45debca3a7931b72c4650795aa/hls/6433de45debca3a7931b72c4650795aa.m3u8.tmp' for writing\r\nframe=  889 fps=355 q=27.0 size=N/A time=00:00:50.17 bitrate=N/A speed=  20x    \r[hls @ 000002ae4742ab40] Opening 'E:/Project/XueChengOnline/xcEduUI01/xuecheng/video//6/4/6433de45debca3a7931b72c4650795aa/hls/6433de45debca3a7931b72c4650795aa_00003.ts' for writing\r\n[hls @ 000002ae4742ab40] Opening 'E:/Project/XueChengOnline/xcEduUI01/xuecheng/video//6/4/6433de45debca3a7931b72c4650795aa/hls/6433de45debca3a7931b72c4650795aa.m3u8.tmp' for writing\r\nframe= 1085 fps=361 q=27.0 size=N/A time=00:01:01.04 bitrate=N/A speed=20.3x    \r[hls @ 000002ae4742ab40] Opening 'E:/Project/XueChengOnline/xcEduUI01/xuecheng/video//6/4/6433de45debca3a7931b72c4650795aa/hls/6433de45debca3a7931b72c4650795aa_00004.ts' for writing\r\n[hls @ 000002ae4742ab40] Opening 'E:/Project/XueChengOnline/xcEduUI01/xuecheng/video//6/4/6433de45debca3a7931b72c4650795aa/hls/6433de45debca3a7931b72c4650795aa.m3u8.tmp' for writing\r\nframe= 1278 fps=364 q=27.0 size=N/A time=00:01:11.77 bitrate=N/A speed=20.5x    \r[hls @ 000002ae4742ab40] Opening 'E:/Project/XueChengOnline/xcEduUI01/xuecheng/video//6/4/6433de45debca3a7931b72c4650795aa/hls/6433de45debca3a7931b72c4650795aa_00005.ts' for writing\r\n[hls @ 000002ae4742ab40] Opening 'E:/Project/XueChengOnline/xcEduUI01/xuecheng/video//6/4/6433de45debca3a7931b72c4650795aa/hls/6433de45debca3a7931b72c4650795aa.m3u8.tmp' for writing\r\nframe= 1461 fps=364 q=27.0 size=N/A time=00:01:21.94 bitrate=N/A speed=20.4x    \rframe= 1657 fps=367 q=27.0 size=N/A time=00:01:32.83 bitrate=N/A speed=20.6x    \r[hls @ 000002ae4742ab40] Opening 'E:/Project/XueChengOnline/xcEduUI01/xuecheng/video//6/4/6433de45debca3a7931b72c4650795aa/hls/6433de45debca3a7931b72c4650795aa_00006.ts' for writing\r\n[hls @ 000002ae4742ab40] Opening 'E:/Project/XueChengOnline/xcEduUI01/xuecheng/video//6/4/6433de45debca3a7931b72c4650795aa/hls/6433de45debca3a7931b72c4650795aa.m3u8.tmp' for writing\r\nframe= 1855 fps=370 q=27.0 size=N/A time=00:01:43.79 bitrate=N/A speed=20.7x    \r[hls @ 000002ae4742ab40] Opening 'E:/Project/XueChengOnline/xcEduUI01/xuecheng/video//6/4/6433de45debca3a7931b72c4650795aa/hls/6433de45debca3a7931b72c4650795aa_00007.ts' for writing\r\n[hls @ 000002ae4742ab40] Opening 'E:/Project/XueChengOnline/xcEduUI01/xuecheng/video//6/4/6433de45debca3a7931b72c4650795aa/hls/6433de45debca3a7931b72c4650795aa.m3u8.tmp' for writing\r\nframe= 2047 fps=371 q=27.0 size=N/A time=00:01:54.49 bitrate=N/A speed=20.8x    \r[hls @ 000002ae4742ab40] Opening 'E:/Project/XueChengOnline/xcEduUI01/xuecheng/video//6/4/6433de45debca3a7931b72c4650795aa/hls/6433de45debca3a7931b72c4650795aa_00008.ts' for writing\r\n[hls @ 000002ae4742ab40] Opening 'E:/Project/XueChengOnline/xcEduUI01/xuecheng/video//6/4/6433de45debca3a7931b72c4650795aa/hls/6433de45debca3a7931b72c4650795aa.m3u8.tmp' for writing\r\nframe= 2216 fps=368 q=27.0 size=N/A time=00:02:03.87 bitrate=N/A speed=20.6x    \rframe= 2408 fps=370 q=27.0 size=N/A time=00:02:14.53 bitrate=N/A speed=20.6x    \r[hls @ 000002ae4742ab40] Opening 'E:/Project/XueChengOnline/xcEduUI01/xuecheng/video//6/4/6433de45debca3a7931b72c4650795aa/hls/6433de45debca3a7931b72c4650795aa_00009.ts' for writing\r\n[hls @ 000002ae4742ab40] Opening 'E:/Project/XueChengOnline/xcEduUI01/xuecheng/video//6/4/6433de45debca3a7931b72c4650795aa/hls/6433de45debca3a7931b72c4650795aa.m3u8.tmp' for writing\r\nframe= 2595 fps=370 q=27.0 size=N/A time=00:02:24.93 bitrate=N/A speed=20.7x    \r[hls @ 000002ae4742ab40] Opening 'E:/Project/XueChengOnline/xcEduUI01/xuecheng/video//6/4/6433de45debca3a7931b72c4650795aa/hls/6433de45debca3a7931b72c4650795aa_00010.ts' for writing\r\n[hls @ 000002ae4742ab40] Opening 'E:/Project/XueChengOnline/xcEduUI01/xuecheng/video//6/4/6433de45debca3a7931b72c4650795aa/hls/6433de45debca3a7931b72c4650795aa.m3u8.tmp' for writing\r\nframe= 2767 fps=368 q=27.0 size=N/A time=00:02:34.48 bitrate=N/A speed=20.5x    \r[hls @ 000002ae4742ab40] Opening 'E:/Project/XueChengOnline/xcEduUI01/xuecheng/video//6/4/6433de45debca3a7931b72c4650795aa/hls/6433de45debca3a7931b72c4650795aa_00011.ts' for writing\r\n[hls @ 000002ae4742ab40] Opening 'E:/Project/XueChengOnline/xcEduUI01/xuecheng/video//6/4/6433de45debca3a7931b72c4650795aa/hls/6433de45debca3a7931b72c4650795aa.m3u8.tmp' for writing\r\nframe= 2950 fps=368 q=27.0 size=N/A time=00:02:44.65 bitrate=N/A speed=20.5x    \rframe= 3136 fps=368 q=27.0 size=N/A time=00:02:54.98 bitrate=N/A speed=20.5x    \r[hls @ 000002ae4742ab40] Opening 'E:/Project/XueChengOnline/xcEduUI01/xuecheng/video//6/4/6433de45debca3a7931b72c4650795aa/hls/6433de45debca3a7931b72c4650795aa_00012.ts' for writing\r\n[hls @ 000002ae4742ab40] Opening 'E:/Project/XueChengOnline/xcEduUI01/xuecheng/video//6/4/6433de45debca3a7931b72c4650795aa/hls/6433de45debca3a7931b72c4650795aa.m3u8.tmp' for writing\r\nframe= 3325 fps=368 q=27.0 size=N/A time=00:03:05.47 bitrate=N/A speed=20.6x    \r[hls @ 000002ae4742ab40] Opening 'E:/Project/XueChengOnline/xcEduUI01/xuecheng/video//6/4/6433de45debca3a7931b72c4650795aa/hls/6433de45debca3a7931b72c4650795aa_00013.ts' for writing\r\n[hls @ 000002ae4742ab40] Opening 'E:/Project/XueChengOnline/xcEduUI01/xuecheng/video//6/4/6433de45debca3a7931b72c4650795aa/hls/6433de45debca3a7931b72c4650795aa.m3u8.tmp' for writing\r\nframe= 3473 fps=365 q=27.0 size=N/A time=00:03:13.69 bitrate=N/A speed=20.3x    \r[hls @ 000002ae4742ab40] Opening 'E:/Project/XueChengOnline/xcEduUI01/xuecheng/video//6/4/6433de45debca3a7931b72c4650795aa/hls/6433de45debca3a7931b72c4650795aa_00014.ts' for writing\r\n[hls @ 000002ae4742ab40] Opening 'E:/Project/XueChengOnline/xcEduUI01/xuecheng/video//6/4/6433de45debca3a7931b72c4650795aa/hls/6433de45debca3a7931b72c4650795aa.m3u8.tmp' for writing\r\nframe= 3655 fps=365 q=27.0 size=N/A time=00:03:23.82 bitrate=N/A speed=20.3x    \r[hls @ 000002ae4742ab40] Opening 'E:/Project/XueChengOnline/xcEduUI01/xuecheng/video//6/4/6433de45debca3a7931b72c4650795aa/hls/6433de45debca3a7931b72c4650795aa_00015.ts' for writing\r\n[hls @ 000002ae4742ab40] Opening 'E:/Project/XueChengOnline/xcEduUI01/xuecheng/video//6/4/6433de45debca3a7931b72c4650795aa/hls/6433de45debca3a7931b72c4650795aa.m3u8.tmp' for writing\r\nframe= 3861 fps=367 q=27.0 size=N/A time=00:03:35.27 bitrate=N/A speed=20.5x    \r[hls @ 000002ae4742ab40] Opening 'E:/Project/XueChengOnline/xcEduUI01/xuecheng/video//6/4/6433de45debca3a7931b72c4650795aa/hls/6433de45debca3a7931b72c4650795aa_00016.ts' for writing\r\n[hls @ 000002ae4742ab40] Opening 'E:/Project/XueChengOnline/xcEduUI01/xuecheng/video//6/4/6433de45debca3a7931b72c4650795aa/hls/6433de45debca3a7931b72c4650795aa.m3u8.tmp' for writing\r\nframe= 4030 fps=365 q=27.0 size=N/A time=00:03:44.67 bitrate=N/A speed=20.4x    \rframe= 4211 fps=365 q=27.0 size=N/A time=00:03:54.70 bitrate=N/A speed=20.4x    \r[hls @ 000002ae4742ab40] Opening 'E:/Project/XueChengOnline/xcEduUI01/xuecheng/video//6/4/6433de45debca3a7931b72c4650795aa/hls/6433de45debca3a7931b72c4650795aa_00017.ts' for writing\r\n[hls @ 000002ae4742ab40] Opening 'E:/Project/XueChengOnline/xcEduUI01/xuecheng/video//6/4/6433de45debca3a7931b72c4650795aa/hls/6433de45debca3a7931b72c4650795aa.m3u8.tmp' for writing\r\nframe= 4412 fps=367 q=27.0 size=N/A time=00:04:05.85 bitrate=N/A speed=20.4x    \r[hls @ 000002ae4742ab40] Opening 'E:/Project/XueChengOnline/xcEduUI01/xuecheng/video//6/4/6433de45debca3a7931b72c4650795aa/hls/6433de45debca3a7931b72c4650795aa_00018.ts' for writing\r\n[hls @ 000002ae4742ab40] Opening 'E:/Project/XueChengOnline/xcEduUI01/xuecheng/video//6/4/6433de45debca3a7931b72c4650795aa/hls/6433de45debca3a7931b72c4650795aa.m3u8.tmp' for writing\r\nframe= 4588 fps=366 q=27.0 size=N/A time=00:04:15.67 bitrate=N/A speed=20.4x    \r[hls @ 000002ae4742ab40] Opening 'E:/Project/XueChengOnline/xcEduUI01/xuecheng/video//6/4/6433de45debca3a7931b72c4650795aa/hls/6433de45debca3a7931b72c4650795aa_00019.ts' for writing\r\n[hls @ 000002ae4742ab40] Opening 'E:/Project/XueChengOnline/xcEduUI01/xuecheng/video//6/4/6433de45debca3a7931b72c4650795aa/hls/6433de45debca3a7931b72c4650795aa.m3u8.tmp' for writing\r\nframe= 4764 fps=366 q=27.0 size=N/A time=00:04:25.42 bitrate=N/A speed=20.4x    \rframe= 4945 fps=365 q=27.0 size=N/A time=00:04:35.50 bitrate=N/A speed=20.4x    \r[hls @ 000002ae4742ab40] Opening 'E:/Project/XueChengOnline/xcEduUI01/xuecheng/video//6/4/6433de45debca3a7931b72c4650795aa/hls/6433de45debca3a7931b72c4650795aa_00020.ts' for writing\r\n[hls @ 000002ae4742ab40] Opening 'E:/Project/XueChengOnline/xcEduUI01/xuecheng/video//6/4/6433de45debca3a7931b72c4650795aa/hls/6433de45debca3a7931b72c4650795aa.m3u8.tmp' for writing\r\nframe= 5129 fps=365 q=27.0 size=N/A time=00:04:45.74 bitrate=N/A speed=20.4x    \r[hls @ 000002ae4742ab40] Opening 'E:/Project/XueChengOnline/xcEduUI01/xuecheng/video//6/4/6433de45debca3a7931b72c4650795aa/hls/6433de45debca3a7931b72c4650795aa_00021.ts' for writing\r\n[hls @ 000002ae4742ab40] Opening 'E:/Project/XueChengOnline/xcEduUI01/xuecheng/video//6/4/6433de45debca3a7931b72c4650795aa/hls/6433de45debca3a7931b72c4650795aa.m3u8.tmp' for writing\r\nframe= 5304 fps=365 q=27.0 size=N/A time=00:04:55.42 bitrate=N/A speed=20.3x    \r[hls @ 000002ae4742ab40] Opening 'E:/Project/XueChengOnline/xcEduUI01/xuecheng/video//6/4/6433de45debca3a7931b72c4650795aa/hls/6433de45debca3a7931b72c4650795aa_00022.ts' for writing\r\n[hls @ 000002ae4742ab40] Opening 'E:/Project/XueChengOnline/xcEduUI01/xuecheng/video//6/4/6433de45debca3a7931b72c4650795aa/hls/6433de45debca3a7931b72c4650795aa.m3u8.tmp' for writing\r\nframe= 5472 fps=364 q=27.0 size=N/A time=00:05:04.76 bitrate=N/A speed=20.3x    \rframe= 5654 fps=364 q=27.0 size=N/A time=00:05:14.90 bitrate=N/A speed=20.3x    \r[hls @ 000002ae4742ab40] Opening 'E:/Project/XueChengOnline/xcEduUI01/xuecheng/video//6/4/6433de45debca3a7931b72c4650795aa/hls/6433de45debca3a7931b72c4650795aa_00023.ts' for writing\r\n[hls @ 000002ae4742ab40] Opening 'E:/Project/XueChengOnline/xcEduUI01/xuecheng/video//6/4/6433de45debca3a7931b72c4650795aa/hls/6433de45debca3a7931b72c4650795aa.m3u8.tmp' for writing\r\n[hls @ 000002ae4742ab40] Opening 'E:/Project/XueChengOnline/xcEduUI01/xuecheng/video//6/4/6433de45debca3a7931b72c4650795aa/hls/6433de45debca3a7931b72c4650795aa_00024.ts' for writing\r\n[hls @ 000002ae4742ab40] Opening 'E:/Project/XueChengOnline/xcEduUI01/xuecheng/video//6/4/6433de45debca3a7931b72c4650795aa/hls/6433de45debca3a7931b72c4650795aa.m3u8.tmp' for writing\r\nframe= 5833 fps=364 q=27.0 size=N/A time=00:05:24.82 bitrate=N/A speed=20.3x    \rframe= 6021 fps=364 q=27.0 size=N/A time=00:05:35.27 bitrate=N/A speed=20.3x    \r[hls @ 000002ae4742ab40] Opening 'E:/Project/XueChengOnline/xcEduUI01/xuecheng/video//6/4/6433de45debca3a7931b72c4650795aa/hls/6433de45debca3a7931b72c4650795aa_00025.ts' for writing\r\n[hls @ 000002ae4742ab40] Opening 'E:/Project/XueChengOnline/xcEduUI01/xuecheng/video//6/4/6433de45debca3a7931b72c4650795aa/hls/6433de45debca3a7931b72c4650795aa.m3u8.tmp' for writing\r\nframe= 6196 fps=364 q=27.0 size=N/A time=00:05:45.02 bitrate=N/A speed=20.2x    \r[hls @ 000002ae4742ab40] Opening 'E:/Project/XueChengOnline/xcEduUI01/xuecheng/video//6/4/6433de45debca3a7931b72c4650795aa/hls/6433de45debca3a7931b72c4650795aa_00026.ts' for writing\r\n[hls @ 000002ae4742ab40] Opening 'E:/Project/XueChengOnline/xcEduUI01/xuecheng/video//6/4/6433de45debca3a7931b72c4650795aa/hls/6433de45debca3a7931b72c4650795aa.m3u8.tmp' for writing\r\nframe= 6369 fps=363 q=27.0 size=N/A time=00:05:54.59 bitrate=N/A speed=20.2x    \r[hls @ 000002ae4742ab40] Opening 'E:/Project/XueChengOnline/xcEduUI01/xuecheng/video//6/4/6433de45debca3a7931b72c4650795aa/hls/6433de45debca3a7931b72c4650795aa_00027.ts' for writing\r\n[hls @ 000002ae4742ab40] Opening 'E:/Project/XueChengOnline/xcEduUI01/xuecheng/video//6/4/6433de45debca3a7931b72c4650795aa/hls/6433de45debca3a7931b72c4650795aa.m3u8.tmp' for writing\r\nframe= 6552 fps=363 q=27.0 size=N/A time=00:06:04.76 bitrate=N/A speed=20.2x    \r[hls @ 000002ae4742ab40] Opening 'E:/Project/XueChengOnline/xcEduUI01/xuecheng/video//6/4/6433de45debca3a7931b72c4650795aa/hls/6433de45debca3a7931b72c4650795aa_00028.ts' for writing\r\n[hls @ 000002ae4742ab40] Opening 'E:/Project/XueChengOnline/xcEduUI01/xuecheng/video//6/4/6433de45debca3a7931b72c4650795aa/hls/6433de45debca3a7931b72c4650795aa.m3u8.tmp' for writing\r\nframe= 6730 fps=363 q=27.0 size=N/A time=00:06:14.65 bitrate=N/A speed=20.2x    \r[hls @ 000002ae4742ab40] Opening 'E:/Project/XueChengOnline/xcEduUI01/xuecheng/video//6/4/6433de45debca3a7931b72c4650795aa/hls/6433de45debca3a7931b72c4650795aa_00029.ts' for writing\r\n[hls @ 000002ae4742ab40] Opening 'E:/Project/XueChengOnline/xcEduUI01/xuecheng/video//6/4/6433de45debca3a7931b72c4650795aa/hls/6433de45debca3a7931b72c4650795aa.m3u8.tmp' for writing\r\nframe= 6923 fps=364 q=27.0 size=N/A time=00:06:25.38 bitrate=N/A speed=20.2x    \r[hls @ 000002ae4742ab40] Opening 'E:/Project/XueChengOnline/xcEduUI01/xuecheng/video//6/4/6433de45debca3a7931b72c4650795aa/hls/6433de45debca3a7931b72c4650795aa_00030.ts' for writing\r\n[hls @ 000002ae4742ab40] Opening 'E:/Project/XueChengOnline/xcEduUI01/xuecheng/video//6/4/6433de45debca3a7931b72c4650795aa/hls/6433de45debca3a7931b72c4650795aa.m3u8.tmp' for writing\r\nframe= 7084 fps=362 q=24.0 size=N/A time=00:06:34.32 bitrate=N/A speed=20.2x    \r[hls @ 000002ae4742ab40] Opening 'E:/Project/XueChengOnline/xcEduUI01/xuecheng/video//6/4/6433de45debca3a7931b72c4650795aa/hls/6433de45debca3a7931b72c4650795aa_00031.ts' for writing\r\n[hls @ 000002ae4742ab40] Opening 'E:/Project/XueChengOnline/xcEduUI01/xuecheng/video//6/4/6433de45debca3a7931b72c4650795aa/hls/6433de45debca3a7931b72c4650795aa.m3u8.tmp' for writing\r\nframe= 7245 fps=361 q=27.0 size=N/A time=00:06:43.26 bitrate=N/A speed=20.1x    \r[hls @ 000002ae4742ab40] Opening 'E:/Project/XueChengOnline/xcEduUI01/xuecheng/video//6/4/6433de45debca3a7931b72c4650795aa/hls/6433de45debca3a7931b72c4650795aa_00032.ts' for writing\r\n[hls @ 000002ae4742ab40] Opening 'E:/Project/XueChengOnline/xcEduUI01/xuecheng/video//6/4/6433de45debca3a7931b72c4650795aa/hls/6433de45debca3a7931b72c4650795aa.m3u8.tmp' for writing\r\nframe= 7422 fps=361 q=27.0 size=N/A time=00:06:53.10 bitrate=N/A speed=20.1x    \r[hls @ 000002ae4742ab40] Opening 'E:/Project/XueChengOnline/xcEduUI01/xuecheng/video//6/4/6433de45debca3a7931b72c4650795aa/hls/6433de45debca3a7931b72c4650795aa_00033.ts' for writing\r\n[hls @ 000002ae4742ab40] Opening 'E:/Project/XueChengOnline/xcEduUI01/xuecheng/video//6/4/6433de45debca3a7931b72c4650795aa/hls/6433de45debca3a7931b72c4650795aa.m3u8.tmp' for writing\r\nframe= 7611 fps=362 q=27.0 size=N/A time=00:07:03.57 bitrate=N/A speed=20.1x    \r[hls @ 000002ae4742ab40] Opening 'E:/Project/XueChengOnline/xcEduUI01/xuecheng/video//6/4/6433de45debca3a7931b72c4650795aa/hls/6433de45debca3a7931b72c4650795aa_00034.ts' for writing\r\n[hls @ 000002ae4742ab40] Opening 'E:/Project/XueChengOnline/xcEduUI01/xuecheng/video//6/4/6433de45debca3a7931b72c4650795aa/hls/6433de45debca3a7931b72c4650795aa.m3u8.tmp' for writing\r\nframe= 7770 fps=361 q=27.0 size=N/A time=00:07:12.42 bitrate=N/A speed=20.1x    \r[hls @ 000002ae4742ab40] Opening 'E:/Project/XueChengOnline/xcEduUI01/xuecheng/video//6/4/6433de45debca3a7931b72c4650795aa/hls/6433de45debca3a7931b72c4650795aa_00035.ts' for writing\r\n[hls @ 000002ae4742ab40] Opening 'E:/Project/XueChengOnline/xcEduUI01/xuecheng/video//6/4/6433de45debca3a7931b72c4650795aa/hls/6433de45debca3a7931b72c4650795aa.m3u8.tmp' for writing\r\nframe= 7922 fps=359 q=27.0 size=N/A time=00:07:20.87 bitrate=N/A speed=  20x    \r[hls @ 000002ae4742ab40] Opening 'E:/Project/XueChengOnline/xcEduUI01/xuecheng/video//6/4/6433de45debca3a7931b72c4650795aa/hls/6433de45debca3a7931b72c4650795aa_00036.ts' for writing\r\n[hls @ 000002ae4742ab40] Opening 'E:/Project/XueChengOnline/xcEduUI01/xuecheng/video//6/4/6433de45debca3a7931b72c4650795aa/hls/6433de45debca3a7931b72c4650795aa.m3u8.tmp' for writing\r\nframe= 8102 fps=359 q=27.0 size=N/A time=00:07:30.88 bitrate=N/A speed=  20x    \rframe= 8284 fps=359 q=27.0 size=N/A time=00:07:40.98 bitrate=N/A speed=  20x    \r[hls @ 000002ae4742ab40] Opening 'E:/Project/XueChengOnline/xcEduUI01/xuecheng/video//6/4/6433de45debca3a7931b72c4650795aa/hls/6433de45debca3a7931b72c4650795aa_00037.ts' for writing\r\n[hls @ 000002ae4742ab40] Opening 'E:/Project/XueChengOnline/xcEduUI01/xuecheng/video//6/4/6433de45debca3a7931b72c4650795aa/hls/6433de45debca3a7931b72c4650795aa.m3u8.tmp' for writing\r\nframe= 8458 fps=359 q=27.0 size=N/A time=00:07:50.66 bitrate=N/A speed=  20x    \r[hls @ 000002ae4742ab40] Opening 'E:/Project/XueChengOnline/xcEduUI01/xuecheng/video//6/4/6433de45debca3a7931b72c4650795aa/hls/6433de45debca3a7931b72c4650795aa_00038.ts' for writing\r\n[hls @ 000002ae4742ab40] Opening 'E:/Project/XueChengOnline/xcEduUI01/xuecheng/video//6/4/6433de45debca3a7931b72c4650795aa/hls/6433de45debca3a7931b72c4650795aa.m3u8.tmp' for writing\r\nframe= 8640 fps=359 q=27.0 size=N/A time=00:08:00.76 bitrate=N/A speed=  20x    \r[hls @ 000002ae4742ab40] Opening 'E:/Project/XueChengOnline/xcEduUI01/xuecheng/video//6/4/6433de45debca3a7931b72c4650795aa/hls/6433de45debca3a7931b72c4650795aa_00039.ts' for writing\r\n[hls @ 000002ae4742ab40] Opening 'E:/Project/XueChengOnline/xcEduUI01/xuecheng/video//6/4/6433de45debca3a7931b72c4650795aa/hls/6433de45debca3a7931b72c4650795aa.m3u8.tmp' for writing\r\nframe= 8825 fps=359 q=27.0 size=N/A time=00:08:11.05 bitrate=N/A speed=  20x    \r[hls @ 000002ae4742ab40] Opening 'E:/Project/XueChengOnline/xcEduUI01/xuecheng/video//6/4/6433de45debca3a7931b72c4650795aa/hls/6433de45debca3a7931b72c4650795aa_00040.ts' for writing\r\n[hls @ 000002ae4742ab40] Opening 'E:/Project/XueChengOnline/xcEduUI01/xuecheng/video//6/4/6433de45debca3a7931b72c4650795aa/hls/6433de45debca3a7931b72c4650795aa.m3u8.tmp' for writing\r\nframe= 8986 fps=358 q=27.0 size=N/A time=00:08:19.99 bitrate=N/A speed=19.9x    \rframe= 9143 fps=357 q=27.0 size=N/A time=00:08:28.67 bitrate=N/A speed=19.9x    \r[hls @ 000002ae4742ab40] Opening 'E:/Project/XueChengOnline/xcEduUI01/xuecheng/video//6/4/6433de45debca3a7931b72c4650795aa/hls/6433de45debca3a7931b72c4650795aa_00041.ts' for writing\r\n[hls @ 000002ae4742ab40] Opening 'E:/Project/XueChengOnline/xcEduUI01/xuecheng/video//6/4/6433de45debca3a7931b72c4650795aa/hls/6433de45debca3a7931b72c4650795aa.m3u8.tmp' for writing\r\nframe= 9332 fps=358 q=27.0 size=N/A time=00:08:39.22 bitrate=N/A speed=19.9x    \r[hls @ 000002ae4742ab40] Opening 'E:/Project/XueChengOnline/xcEduUI01/xuecheng/video//6/4/6433de45debca3a7931b72c4650795aa/hls/6433de45debca3a7931b72c4650795aa_00042.ts' for writing\r\n[hls @ 000002ae4742ab40] Opening 'E:/Project/XueChengOnline/xcEduUI01/xuecheng/video//6/4/6433de45debca3a7931b72c4650795aa/hls/6433de45debca3a7931b72c4650795aa.m3u8.tmp' for writing\r\nframe= 9502 fps=357 q=27.0 size=N/A time=00:08:48.64 bitrate=N/A speed=19.9x    \r[hls @ 000002ae4742ab40] Opening 'E:/Project/XueChengOnline/xcEduUI01/xuecheng/video//6/4/6433de45debca3a7931b72c4650795aa/hls/6433de45debca3a7931b72c4650795aa_00043.ts' for writing\r\n[hls @ 000002ae4742ab40] Opening 'E:/Project/XueChengOnline/xcEduUI01/xuecheng/video//6/4/6433de45debca3a7931b72c4650795aa/hls/6433de45debca3a7931b72c4650795aa.m3u8.tmp' for writing\r\nframe= 9680 fps=357 q=27.0 size=N/A time=00:08:58.53 bitrate=N/A speed=19.9x    \r[hls @ 000002ae4742ab40] Opening 'E:/Project/XueChengOnline/xcEduUI01/xuecheng/video//6/4/6433de45debca3a7931b72c4650795aa/hls/6433de45debca3a7931b72c4650795aa_00044.ts' for writing\r\n[hls @ 000002ae4742ab40] Opening 'E:/Project/XueChengOnline/xcEduUI01/xuecheng/video//6/4/6433de45debca3a7931b72c4650795aa/hls/6433de45debca3a7931b72c4650795aa.m3u8.tmp' for writing\r\n[hls @ 000002ae4742ab40] Opening 'E:/Project/XueChengOnline/xcEduUI01/xuecheng/video//6/4/6433de45debca3a7931b72c4650795aa/hls/6433de45debca3a7931b72c4650795aa_00045.ts' for writing\r\n[hls @ 000002ae4742ab40] Opening 'E:/Project/XueChengOnline/xcEduUI01/xuecheng/video//6/4/6433de45debca3a7931b72c4650795aa/hls/6433de45debca3a7931b72c4650795aa.m3u8.tmp' for writing\r\nframe= 9863 fps=358 q=27.0 size=N/A time=00:09:08.70 bitrate=N/A speed=19.9x    \r[hls @ 000002ae4742ab40] Opening 'E:/Project/XueChengOnline/xcEduUI01/xuecheng/video//6/4/6433de45debca3a7931b72c4650795aa/hls/6433de45debca3a7931b72c4650795aa_00046.ts' for writing\r\n[hls @ 000002ae4742ab40] Opening 'E:/Project/XueChengOnline/xcEduUI01/xuecheng/video//6/4/6433de45debca3a7931b72c4650795aa/hls/6433de45debca3a7931b72c4650795aa.m3u8.tmp' for writing\r\nframe=10057 fps=358 q=27.0 size=N/A time=00:09:19.48 bitrate=N/A speed=19.9x    \r[hls @ 000002ae4742ab40] Opening 'E:/Project/XueChengOnline/xcEduUI01/xuecheng/video//6/4/6433de45debca3a7931b72c4650795aa/hls/6433de45debca3a7931b72c4650795aa_00047.ts' for writing\r\n[hls @ 000002ae4742ab40] Opening 'E:/Project/XueChengOnline/xcEduUI01/xuecheng/video//6/4/6433de45debca3a7931b72c4650795aa/hls/6433de45debca3a7931b72c4650795aa.m3u8.tmp' for writing\r\nframe=10240 fps=358 q=27.0 size=N/A time=00:09:29.65 bitrate=N/A speed=19.9x    \r[hls @ 000002ae4742ab40] Opening 'E:/Project/XueChengOnline/xcEduUI01/xuecheng/video//6/4/6433de45debca3a7931b72c4650795aa/hls/6433de45debca3a7931b72c4650795aa_00048.ts' for writing\r\n[hls @ 000002ae4742ab40] Opening 'E:/Project/XueChengOnline/xcEduUI01/xuecheng/video//6/4/6433de45debca3a7931b72c4650795aa/hls/6433de45debca3a7931b72c4650795aa.m3u8.tmp' for writing\r\n[hls @ 000002ae4742ab40] Opening 'E:/Project/XueChengOnline/xcEduUI01/xuecheng/video//6/4/6433de45debca3a7931b72c4650795aa/hls/6433de45debca3a7931b72c4650795aa_00049.ts' for writing\r\n[hls @ 000002ae4742ab40] Opening 'E:/Project/XueChengOnline/xcEduUI01/xuecheng/video//6/4/6433de45debca3a7931b72c4650795aa/hls/6433de45debca3a7931b72c4650795aa.m3u8.tmp' for writing\r\nframe=10414 fps=358 q=27.0 size=N/A time=00:09:39.36 bitrate=N/A speed=19.9x    \r[hls @ 000002ae4742ab40] Opening 'E:/Project/XueChengOnline/xcEduUI01/xuecheng/video//6/4/6433de45debca3a7931b72c4650795aa/hls/6433de45debca3a7931b72c4650795aa_00050.ts' for writing\r\n[hls @ 000002ae4742ab40] Opening 'E:/Project/XueChengOnline/xcEduUI01/xuecheng/video//6/4/6433de45debca3a7931b72c4650795aa/hls/6433de45debca3a7931b72c4650795aa.m3u8.tmp' for writing\r\nframe=10600 fps=358 q=27.0 size=N/A time=00:09:49.64 bitrate=N/A speed=19.9x    \r[hls @ 000002ae4742ab40] Opening 'E:/Project/XueChengOnline/xcEduUI01/xuecheng/video//6/4/6433de45debca3a7931b72c4650795aa/hls/6433de45debca3a7931b72c4650795aa_00051.ts' for writing\r\n[hls @ 000002ae4742ab40] Opening 'E:/Project/XueChengOnline/xcEduUI01/xuecheng/video//6/4/6433de45debca3a7931b72c4650795aa/hls/6433de45debca3a7931b72c4650795aa.m3u8.tmp' for writing\r\nframe=10766 fps=358 q=27.0 size=N/A time=00:09:58.88 bitrate=N/A speed=19.9x    \r[hls @ 000002ae4742ab40] Opening 'E:/Project/XueChengOnline/xcEduUI01/xuecheng/video//6/4/6433de45debca3a7931b72c4650795aa/hls/6433de45debca3a7931b72c4650795aa_00052.ts' for writing\r\n[hls @ 000002ae4742ab40] Opening 'E:/Project/XueChengOnline/xcEduUI01/xuecheng/video//6/4/6433de45debca3a7931b72c4650795aa/hls/6433de45debca3a7931b72c4650795aa.m3u8.tmp' for writing\r\nframe=10929 fps=357 q=27.0 size=N/A time=00:10:07.91 bitrate=N/A speed=19.9x    \rframe=11114 fps=357 q=27.0 size=N/A time=00:10:18.25 bitrate=N/A speed=19.9x    \r[hls @ 000002ae4742ab40] Opening 'E:/Project/XueChengOnline/xcEduUI01/xuecheng/video//6/4/6433de45debca3a7931b72c4650795aa/hls/6433de45debca3a7931b72c4650795aa_00053.ts' for writing\r\n[hls @ 000002ae4742ab40] Opening 'E:/Project/XueChengOnline/xcEduUI01/xuecheng/video//6/4/6433de45debca3a7931b72c4650795aa/hls/6433de45debca3a7931b72c4650795aa.m3u8.tmp' for writing\r\nframe=11329 fps=359 q=27.0 size=N/A time=00:10:30.16 bitrate=N/A speed=19.9x    \r[hls @ 000002ae4742ab40] Opening 'E:/Project/XueChengOnline/xcEduUI01/xuecheng/video//6/4/6433de45debca3a7931b72c4650795aa/hls/6433de45debca3a7931b72c4650795aa_00054.ts' for writing\r\n[hls @ 000002ae4742ab40] Opening 'E:/Project/XueChengOnline/xcEduUI01/xuecheng/video//6/4/6433de45debca3a7931b72c4650795aa/hls/6433de45debca3a7931b72c4650795aa.m3u8.tmp' for writing\r\nframe=11522 fps=359 q=27.0 size=N/A time=00:10:40.86 bitrate=N/A speed=  20x    \r[hls @ 000002ae4742ab40] Opening 'E:/Project/XueChengOnline/xcEduUI01/xuecheng/video//6/4/6433de45debca3a7931b72c4650795aa/hls/6433de45debca3a7931b72c4650795aa_00055.ts' for writing\r\n[hls @ 000002ae4742ab40] Opening 'E:/Project/XueChengOnline/xcEduUI01/xuecheng/video//6/4/6433de45debca3a7931b72c4650795aa/hls/6433de45debca3a7931b72c4650795aa.m3u8.tmp' for writing\r\nframe=11706 fps=359 q=27.0 size=N/A time=00:10:51.11 bitrate=N/A speed=  20x    \r[hls @ 000002ae4742ab40] Opening 'E:/Project/XueChengOnline/xcEduUI01/xuecheng/video//6/4/6433de45debca3a7931b72c4650795aa/hls/6433de45debca3a7931b72c4650795aa_00056.ts' for writing\r\n[hls @ 000002ae4742ab40] Opening 'E:/Project/XueChengOnline/xcEduUI01/xuecheng/video//6/4/6433de45debca3a7931b72c4650795aa/hls/6433de45debca3a7931b72c4650795aa.m3u8.tmp' for writing\r\nframe=11867 fps=359 q=27.0 size=N/A time=00:11:00.05 bitrate=N/A speed=19.9x    \r[hls @ 000002ae4742ab40] Opening 'E:/Project/XueChengOnline/xcEduUI01/xuecheng/video//6/4/6433de45debca3a7931b72c4650795aa/hls/6433de45debca3a7931b72c4650795aa_00057.ts' for writing\r\n[hls @ 000002ae4742ab40] Opening 'E:/Project/XueChengOnline/xcEduUI01/xuecheng/video//6/4/6433de45debca3a7931b72c4650795aa/hls/6433de45debca3a7931b72c4650795aa.m3u8.tmp' for writing\r\nframe=12054 fps=359 q=27.0 size=N/A time=00:11:10.42 bitrate=N/A speed=  20x    \r[hls @ 000002ae4742ab40] Opening 'E:/Project/XueChengOnline/xcEduUI01/xuecheng/video//6/4/6433de45debca3a7931b72c4650795aa/hls/6433de45debca3a7931b72c4650795aa_00058.ts' for writing\r\n[hls @ 000002ae4742ab40] Opening 'E:/Project/XueChengOnline/xcEduUI01/xuecheng/video//6/4/6433de45debca3a7931b72c4650795aa/hls/6433de45debca3a7931b72c4650795aa.m3u8.tmp' for writing\r\n[hls @ 000002ae4742ab40] Opening 'E:/Project/XueChengOnline/xcEduUI01/xuecheng/video//6/4/6433de45debca3a7931b72c4650795aa/hls/6433de45debca3a7931b72c4650795aa_00059.ts' for writing\r\n[hls @ 000002ae4742ab40] Opening 'E:/Project/XueChengOnline/xcEduUI01/xuecheng/video//6/4/6433de45debca3a7931b72c4650795aa/hls/6433de45debca3a7931b72c4650795aa.m3u8.tmp' for writing\r\nframe=12238 fps=359 q=27.0 size=N/A time=00:11:20.64 bitrate=N/A speed=  20x    \r[hls @ 000002ae4742ab40] Opening 'E:/Project/XueChengOnline/xcEduUI01/xuecheng/video//6/4/6433de45debca3a7931b72c4650795aa/hls/6433de45debca3a7931b72c4650795aa_00060.ts' for writing\r\n[hls @ 000002ae4742ab40] Opening 'E:/Project/XueChengOnline/xcEduUI01/xuecheng/video//6/4/6433de45debca3a7931b72c4650795aa/hls/6433de45debca3a7931b72c4650795aa.m3u8.tmp' for writing\r\n[hls @ 000002ae4742ab40] Opening 'E:/Project/XueChengOnline/xcEduUI01/xuecheng/video//6/4/6433de45debca3a7931b72c4650795aa/hls/6433de45debca3a7931b72c4650795aa_00061.ts' for writing\r\n[hls @ 000002ae4742ab40] Opening 'E:/Project/XueChengOnline/xcEduUI01/xuecheng/video//6/4/6433de45debca3a7931b72c4650795aa/hls/6433de45debca3a7931b72c4650795aa.m3u8.tmp' for writing\r\n[hls @ 000002ae4742ab40] Opening 'E:/Project/XueChengOnline/xcEduUI01/xuecheng/video//6/4/6433de45debca3a7931b72c4650795aa/hls/6433de45debca3a7931b72c4650795aa_00062.ts' for writing\r\n[hls @ 000002ae4742ab40] Opening 'E:/Project/XueChengOnline/xcEduUI01/xuecheng/video//6/4/6433de45debca3a7931b72c4650795aa/hls/6433de45debca3a7931b72c4650795aa.m3u8.tmp' for writing\r\nframe=12409 fps=359 q=27.0 size=N/A time=00:11:30.16 bitrate=N/A speed=19.9x    \rframe=12588 fps=359 q=27.0 size=N/A time=00:11:40.10 bitrate=N/A speed=19.9x    \r[hls @ 000002ae4742ab40] Opening 'E:/Project/XueChengOnline/xcEduUI01/xuecheng/video//6/4/6433de45debca3a7931b72c4650795aa/hls/6433de45debca3a7931b72c4650795aa_00063.ts' for writing\r\n[hls @ 000002ae4742ab40] Opening 'E:/Project/XueChengOnline/xcEduUI01/xuecheng/video//6/4/6433de45debca3a7931b72c4650795aa/hls/6433de45debca3a7931b72c4650795aa.m3u8.tmp' for writing\r\nframe=12754 fps=358 q=27.0 size=N/A time=00:11:49.29 bitrate=N/A speed=19.9x    \r[hls @ 000002ae4742ab40] Opening 'E:/Project/XueChengOnline/xcEduUI01/xuecheng/video//6/4/6433de45debca3a7931b72c4650795aa/hls/6433de45debca3a7931b72c4650795aa_00064.ts' for writing\r\n[hls @ 000002ae4742ab40] Opening 'E:/Project/XueChengOnline/xcEduUI01/xuecheng/video//6/4/6433de45debca3a7931b72c4650795aa/hls/6433de45debca3a7931b72c4650795aa.m3u8.tmp' for writing\r\nframe=12924 fps=358 q=27.0 size=N/A time=00:11:58.77 bitrate=N/A speed=19.9x    \r[hls @ 000002ae4742ab40] Opening 'E:/Project/XueChengOnline/xcEduUI01/xuecheng/video//6/4/6433de45debca3a7931b72c4650795aa/hls/6433de45debca3a7931b72c4650795aa_00065.ts' for writing\r\n[hls @ 000002ae4742ab40] Opening 'E:/Project/XueChengOnline/xcEduUI01/xuecheng/video//6/4/6433de45debca3a7931b72c4650795aa/hls/6433de45debca3a7931b72c4650795aa.m3u8.tmp' for writing\r\nframe=13090 fps=358 q=27.0 size=N/A time=00:12:07.98 bitrate=N/A speed=19.9x    \r[hls @ 000002ae4742ab40] Opening 'E:/Project/XueChengOnline/xcEduUI01/xuecheng/video//6/4/6433de45debca3a7931b72c4650795aa/hls/6433de45debca3a7931b72c4650795aa_00066.ts' for writing\r\n[hls @ 000002ae4742ab40] Opening 'E:/Project/XueChengOnline/xcEduUI01/xuecheng/video//6/4/6433de45debca3a7931b72c4650795aa/hls/6433de45debca3a7931b72c4650795aa.m3u8.tmp' for writing\r\nframe=13242 fps=357 q=27.0 size=N/A time=00:12:16.44 bitrate=N/A speed=19.8x    \r[hls @ 000002ae4742ab40] Opening 'E:/Project/XueChengOnline/xcEduUI01/xuecheng/video//6/4/6433de45debca3a7931b72c4650795aa/hls/6433de45debca3a7931b72c4650795aa_00067.ts' for writing\r\n[hls @ 000002ae4742ab40] Opening 'E:/Project/XueChengOnline/xcEduUI01/xuecheng/video//6/4/6433de45debca3a7931b72c4650795aa/hls/6433de45debca3a7931b72c4650795aa.m3u8.tmp' for writing\r\nframe=13417 fps=357 q=27.0 size=N/A time=00:12:26.14 bitrate=N/A speed=19.8x    \r[hls @ 000002ae4742ab40] Opening 'E:/Project/XueChengOnline/xcEduUI01/xuecheng/video//6/4/6433de45debca3a7931b72c4650795aa/hls/6433de45debca3a7931b72c4650795aa_00068.ts' for writing\r\n[hls @ 000002ae4742ab40] Opening 'E:/Project/XueChengOnline/xcEduUI01/xuecheng/video//6/4/6433de45debca3a7931b72c4650795aa/hls/6433de45debca3a7931b72c4650795aa.m3u8.tmp' for writing\r\nframe=13595 fps=357 q=27.0 size=N/A time=00:12:36.04 bitrate=N/A speed=19.8x    \r[hls @ 000002ae4742ab40] Opening 'E:/Project/XueChengOnline/xcEduUI01/xuecheng/video//6/4/6433de45debca3a7931b72c4650795aa/hls/6433de45debca3a7931b72c4650795aa_00069.ts' for writing\r\n[hls @ 000002ae4742ab40] Opening 'E:/Project/XueChengOnline/xcEduUI01/xuecheng/video//6/4/6433de45debca3a7931b72c4650795aa/hls/6433de45debca3a7931b72c4650795aa.m3u8.tmp' for writing\r\nframe=13734 fps=356 q=27.0 size=N/A time=00:12:43.77 bitrate=N/A speed=19.8x    \r[hls @ 000002ae4742ab40] Opening 'E:/Project/XueChengOnline/xcEduUI01/xuecheng/video//6/4/6433de45debca3a7931b72c4650795aa/hls/6433de45debca3a7931b72c4650795aa_00070.ts' for writing\r\n[hls @ 000002ae4742ab40] Opening 'E:/Project/XueChengOnline/xcEduUI01/xuecheng/video//6/4/6433de45debca3a7931b72c4650795aa/hls/6433de45debca3a7931b72c4650795aa.m3u8.tmp' for writing\r\nframe=13903 fps=355 q=27.0 size=N/A time=00:12:53.15 bitrate=N/A speed=19.8x    \r[hls @ 000002ae4742ab40] Opening 'E:/Project/XueChengOnline/xcEduUI01/xuecheng/video//6/4/6433de45debca3a7931b72c4650795aa/hls/6433de45debca3a7931b72c4650795aa_00071.ts' for writing\r\n[hls @ 000002ae4742ab40] Opening 'E:/Project/XueChengOnline/xcEduUI01/xuecheng/video//6/4/6433de45debca3a7931b72c4650795aa/hls/6433de45debca3a7931b72c4650795aa.m3u8.tmp' for writing\r\nframe=14063 fps=355 q=27.0 size=N/A time=00:13:02.04 bitrate=N/A speed=19.7x    \r[hls @ 000002ae4742ab40] Opening 'E:/Project/XueChengOnline/xcEduUI01/xuecheng/video//6/4/6433de45debca3a7931b72c4650795aa/hls/6433de45debca3a7931b72c4650795aa_00072.ts' for writing\r\n[hls @ 000002ae4742ab40] Opening 'E:/Project/XueChengOnline/xcEduUI01/xuecheng/video//6/4/6433de45debca3a7931b72c4650795aa/hls/6433de45debca3a7931b72c4650795aa.m3u8.tmp' for writing\r\nframe=14212 fps=354 q=27.0 size=N/A time=00:13:10.31 bitrate=N/A speed=19.7x    \rframe=14371 fps=354 q=27.0 size=N/A time=00:13:19.16 bitrate=N/A speed=19.7x    \r[hls @ 000002ae4742ab40] Opening 'E:/Project/XueChengOnline/xcEduUI01/xuecheng/video//6/4/6433de45debca3a7931b72c4650795aa/hls/6433de45debca3a7931b72c4650795aa_00073.ts' for writing\r\n[hls @ 000002ae4742ab40] Opening 'E:/Project/XueChengOnline/xcEduUI01/xuecheng/video//6/4/6433de45debca3a7931b72c4650795aa/hls/6433de45debca3a7931b72c4650795aa.m3u8.tmp' for writing\r\nframe=14538 fps=353 q=27.0 size=N/A time=00:13:28.42 bitrate=N/A speed=19.7x    \r[hls @ 000002ae4742ab40] Opening 'E:/Project/XueChengOnline/xcEduUI01/xuecheng/video//6/4/6433de45debca3a7931b72c4650795aa/hls/6433de45debca3a7931b72c4650795aa_00074.ts' for writing\r\n[hls @ 000002ae4742ab40] Opening 'E:/Project/XueChengOnline/xcEduUI01/xuecheng/video//6/4/6433de45debca3a7931b72c4650795aa/hls/6433de45debca3a7931b72c4650795aa.m3u8.tmp' for writing\r\nframe=14725 fps=354 q=27.0 size=N/A time=00:13:38.82 bitrate=N/A speed=19.7x    \r[hls @ 000002ae4742ab40] Opening 'E:/Project/XueChengOnline/xcEduUI01/xuecheng/video//6/4/6433de45debca3a7931b72c4650795aa/hls/6433de45debca3a7931b72c4650795aa_00075.ts' for writing\r\n[hls @ 000002ae4742ab40] Opening 'E:/Project/XueChengOnline/xcEduUI01/xuecheng/video//6/4/6433de45debca3a7931b72c4650795aa/hls/6433de45debca3a7931b72c4650795aa.m3u8.tmp' for writing\r\n[hls @ 000002ae4742ab40] Opening 'E:/Project/XueChengOnline/xcEduUI01/xuecheng/video//6/4/6433de45debca3a7931b72c4650795aa/hls/6433de45debca3a7931b72c4650795aa_00076.ts' for writing\r\n[hls @ 000002ae4742ab40] Opening 'E:/Project/XueChengOnline/xcEduUI01/xuecheng/video//6/4/6433de45debca3a7931b72c4650795aa/hls/6433de45debca3a7931b72c4650795aa.m3u8.tmp' for writing\r\nframe=14911 fps=354 q=27.0 size=N/A time=00:13:49.13 bitrate=N/A speed=19.7x    \r[hls @ 000002ae4742ab40] Opening 'E:/Project/XueChengOnline/xcEduUI01/xuecheng/video//6/4/6433de45debca3a7931b72c4650795aa/hls/6433de45debca3a7931b72c4650795aa_00077.ts' for writing\r\n[hls @ 000002ae4742ab40] Opening 'E:/Project/XueChengOnline/xcEduUI01/xuecheng/video//6/4/6433de45debca3a7931b72c4650795aa/hls/6433de45debca3a7931b72c4650795aa.m3u8.tmp' for writing\r\n[hls @ 000002ae4742ab40] Opening 'E:/Project/XueChengOnline/xcEduUI01/xuecheng/video//6/4/6433de45debca3a7931b72c4650795aa/hls/6433de45debca3a7931b72c4650795aa_00078.ts' for writing\r\n[hls @ 000002ae4742ab40] Opening 'E:/Project/XueChengOnline/xcEduUI01/xuecheng/video//6/4/6433de45debca3a7931b72c4650795aa/hls/6433de45debca3a7931b72c4650795aa.m3u8.tmp' for writing\r\nframe=15097 fps=354 q=27.0 size=N/A time=00:13:59.49 bitrate=N/A speed=19.7x    \r[hls @ 000002ae4742ab40] Opening 'E:/Project/XueChengOnline/xcEduUI01/xuecheng/video//6/4/6433de45debca3a7931b72c4650795aa/hls/6433de45debca3a7931b72c4650795aa_00079.ts' for writing\r\n[hls @ 000002ae4742ab40] Opening 'E:/Project/XueChengOnline/xcEduUI01/xuecheng/video//6/4/6433de45debca3a7931b72c4650795aa/hls/6433de45debca3a7931b72c4650795aa.m3u8.tmp' for writing\r\n[hls @ 000002ae4742ab40] Opening 'E:/Project/XueChengOnline/xcEduUI01/xuecheng/video//6/4/6433de45debca3a7931b72c4650795aa/hls/6433de45debca3a7931b72c4650795aa_00080.ts' for writing\r\n[hls @ 000002ae4742ab40] Opening 'E:/Project/XueChengOnline/xcEduUI01/xuecheng/video//6/4/6433de45debca3a7931b72c4650795aa/hls/6433de45debca3a7931b72c4650795aa.m3u8.tmp' for writing\r\nframe=15283 fps=354 q=27.0 size=N/A time=00:14:09.80 bitrate=N/A speed=19.7x    \rframe=15448 fps=354 q=27.0 size=N/A time=00:14:18.97 bitrate=N/A speed=19.7x    \r[hls @ 000002ae4742ab40] Opening 'E:/Project/XueChengOnline/xcEduUI01/xuecheng/video//6/4/6433de45debca3a7931b72c4650795aa/hls/6433de45debca3a7931b72c4650795aa_00081.ts' for writing\r\n[hls @ 000002ae4742ab40] Opening 'E:/Project/XueChengOnline/xcEduUI01/xuecheng/video//6/4/6433de45debca3a7931b72c4650795aa/hls/6433de45debca3a7931b72c4650795aa.m3u8.tmp' for writing\r\nframe=15614 fps=354 q=27.0 size=N/A time=00:14:28.21 bitrate=N/A speed=19.7x    \r[hls @ 000002ae4742ab40] Opening 'E:/Project/XueChengOnline/xcEduUI01/xuecheng/video//6/4/6433de45debca3a7931b72c4650795aa/hls/6433de45debca3a7931b72c4650795aa_00082.ts' for writing\r\n[hls @ 000002ae4742ab40] Opening 'E:/Project/XueChengOnline/xcEduUI01/xuecheng/video//6/4/6433de45debca3a7931b72c4650795aa/hls/6433de45debca3a7931b72c4650795aa.m3u8.tmp' for writing\r\nframe=15784 fps=354 q=27.0 size=N/A time=00:14:37.66 bitrate=N/A speed=19.7x    \r[hls @ 000002ae4742ab40] Opening 'E:/Project/XueChengOnline/xcEduUI01/xuecheng/video//6/4/6433de45debca3a7931b72c4650795aa/hls/6433de45debca3a7931b72c4650795aa_00083.ts' for writing\r\n[hls @ 000002ae4742ab40] Opening 'E:/Project/XueChengOnline/xcEduUI01/xuecheng/video//6/4/6433de45debca3a7931b72c4650795aa/hls/6433de45debca3a7931b72c4650795aa.m3u8.tmp' for writing\r\nframe=15960 fps=354 q=27.0 size=N/A time=00:14:47.44 bitrate=N/A speed=19.7x    \rframe=16158 fps=354 q=27.0 size=N/A time=00:14:58.42 bitrate=N/A speed=19.7x    \r[hls @ 000002ae4742ab40] Opening 'E:/Project/XueChengOnline/xcEduUI01/xuecheng/video//6/4/6433de45debca3a7931b72c4650795aa/hls/6433de45debca3a7931b72c4650795aa_00084.ts' for writing\r\n[hls @ 000002ae4742ab40] Opening 'E:/Project/XueChengOnline/xcEduUI01/xuecheng/video//6/4/6433de45debca3a7931b72c4650795aa/hls/6433de45debca3a7931b72c4650795aa.m3u8.tmp' for writing\r\n[hls @ 000002ae4742ab40] Opening 'E:/Project/XueChengOnline/xcEduUI01/xuecheng/video//6/4/6433de45debca3a7931b72c4650795aa/hls/6433de45debca3a7931b72c4650795aa_00085.ts' for writing\r\n[hls @ 000002ae4742ab40] Opening 'E:/Project/XueChengOnline/xcEduUI01/xuecheng/video//6/4/6433de45debca3a7931b72c4650795aa/hls/6433de45debca3a7931b72c4650795aa.m3u8.tmp' for writing\r\nframe=16335 fps=354 q=27.0 size=N/A time=00:15:08.24 bitrate=N/A speed=19.7x    \r[hls @ 000002ae4742ab40] Opening 'E:/Project/XueChengOnline/xcEduUI01/xuecheng/video//6/4/6433de45debca3a7931b72c4650795aa/hls/6433de45debca3a7931b72c4650795aa_00086.ts' for writing\r\n[hls @ 000002ae4742ab40] Opening 'E:/Project/XueChengOnline/xcEduUI01/xuecheng/video//6/4/6433de45debca3a7931b72c4650795aa/hls/6433de45debca3a7931b72c4650795aa.m3u8.tmp' for writing\r\nframe=16497 fps=354 q=27.0 size=N/A time=00:15:17.25 bitrate=N/A speed=19.7x    \rframe=16680 fps=354 q=27.0 size=N/A time=00:15:27.40 bitrate=N/A speed=19.7x    \r[hls @ 000002ae4742ab40] Opening 'E:/Project/XueChengOnline/xcEduUI01/xuecheng/video//6/4/6433de45debca3a7931b72c4650795aa/hls/6433de45debca3a7931b72c4650795aa_00087.ts' for writing\r\n[hls @ 000002ae4742ab40] Opening 'E:/Project/XueChengOnline/xcEduUI01/xuecheng/video//6/4/6433de45debca3a7931b72c4650795aa/hls/6433de45debca3a7931b72c4650795aa.m3u8.tmp' for writing\r\nframe=16862 fps=354 q=27.0 size=N/A time=00:15:37.55 bitrate=N/A speed=19.7x    \r[hls @ 000002ae4742ab40] Opening 'E:/Project/XueChengOnline/xcEduUI01/xuecheng/video//6/4/6433de45debca3a7931b72c4650795aa/hls/6433de45debca3a7931b72c4650795aa_00088.ts' for writing\r\n[hls @ 000002ae4742ab40] Opening 'E:/Project/XueChengOnline/xcEduUI01/xuecheng/video//6/4/6433de45debca3a7931b72c4650795aa/hls/6433de45debca3a7931b72c4650795aa.m3u8.tmp' for writing\r\nframe=17028 fps=354 q=27.0 size=N/A time=00:15:46.79 bitrate=N/A speed=19.7x    \r[hls @ 000002ae4742ab40] Opening 'E:/Project/XueChengOnline/xcEduUI01/xuecheng/video//6/4/6433de45debca3a7931b72c4650795aa/hls/6433de45debca3a7931b72c4650795aa_00089.ts' for writing\r\n[hls @ 000002ae4742ab40] Opening 'E:/Project/XueChengOnline/xcEduUI01/xuecheng/video//6/4/6433de45debca3a7931b72c4650795aa/hls/6433de45debca3a7931b72c4650795aa.m3u8.tmp' for writing\r\nframe=17205 fps=354 q=27.0 size=N/A time=00:15:56.63 bitrate=N/A speed=19.7x    \r[hls @ 000002ae4742ab40] Opening 'E:/Project/XueChengOnline/xcEduUI01/xuecheng/video//6/4/6433de45debca3a7931b72c4650795aa/hls/6433de45debca3a7931b72c4650795aa_00090.ts' for writing\r\n[hls @ 000002ae4742ab40] Opening 'E:/Project/XueChengOnline/xcEduUI01/xuecheng/video//6/4/6433de45debca3a7931b72c4650795aa/hls/6433de45debca3a7931b72c4650795aa.m3u8.tmp' for writing\r\nframe=17381 fps=354 q=27.0 size=N/A time=00:16:06.36 bitrate=N/A speed=19.7x    \r[hls @ 000002ae4742ab40] Opening 'E:/Project/XueChengOnline/xcEduUI01/xuecheng/video//6/4/6433de45debca3a7931b72c4650795aa/hls/6433de45debca3a7931b72c4650795aa_00091.ts' for writing\r\n[hls @ 000002ae4742ab40] Opening 'E:/Project/XueChengOnline/xcEduUI01/xuecheng/video//6/4/6433de45debca3a7931b72c4650795aa/hls/6433de45debca3a7931b72c4650795aa.m3u8.tmp' for writing\r\nframe=17558 fps=354 q=27.0 size=N/A time=00:16:16.21 bitrate=N/A speed=19.7x    \r[hls @ 000002ae4742ab40] Opening 'E:/Project/XueChengOnline/xcEduUI01/xuecheng/video//6/4/6433de45debca3a7931b72c4650795aa/hls/6433de45debca3a7931b72c4650795aa_00092.ts' for writing\r\n[hls @ 000002ae4742ab40] Opening 'E:/Project/XueChengOnline/xcEduUI01/xuecheng/video//6/4/6433de45debca3a7931b72c4650795aa/hls/6433de45debca3a7931b72c4650795aa.m3u8.tmp' for writing\r\nframe=17727 fps=353 q=27.0 size=N/A time=00:16:25.56 bitrate=N/A speed=19.6x    \r[hls @ 000002ae4742ab40] Opening 'E:/Project/XueChengOnline/xcEduUI01/xuecheng/video//6/4/6433de45debca3a7931b72c4650795aa/hls/6433de45debca3a7931b72c4650795aa_00093.ts' for writing\r\n[hls @ 000002ae4742ab40] Opening 'E:/Project/XueChengOnline/xcEduUI01/xuecheng/video//6/4/6433de45debca3a7931b72c4650795aa/hls/6433de45debca3a7931b72c4650795aa.m3u8.tmp' for writing\r\n[hls @ 000002ae4742ab40] Opening 'E:/Project/XueChengOnline/xcEduUI01/xuecheng/video//6/4/6433de45debca3a7931b72c4650795aa/hls/6433de45debca3a7931b72c4650795aa_00094.ts' for writing\r\n[hls @ 000002ae4742ab40] Opening 'E:/Project/XueChengOnline/xcEduUI01/xuecheng/video//6/4/6433de45debca3a7931b72c4650795aa/hls/6433de45debca3a7931b72c4650795aa.m3u8.tmp' for writing\r\nframe=17783 fps=353 q=-1.0 Lsize=N/A time=00:16:28.03 bitrate=N/A speed=19.6x    \r\nvideo:19315kB audio:8384kB subtitle:0kB other streams:0kB global headers:0kB muxing overhead: unknown\r\n[libx264 @ 000002ae472a2600] frame I:95    Avg QP:13.97  size: 95735\r\n[libx264 @ 000002ae472a2600] frame P:4476  Avg QP:20.18  size:  2177\r\n[libx264 @ 000002ae472a2600] frame B:13212 Avg QP:25.37  size:    71\r\n[libx264 @ 000002ae472a2600] consecutive B-frames:  0.8%  0.2%  0.9% 98.1%\r\n[libx264 @ 000002ae472a2600] mb I  I16..4: 45.2% 21.6% 33.2%\r\n[libx264 @ 000002ae472a2600] mb P  I16..4:  0.9%  0.6%  0.6%  P16..4:  0.8%  0.2%  0.1%  0.0%  0.0%    skip:96.8%\r\n[libx264 @ 000002ae472a2600] mb B  I16..4:  0.0%  0.0%  0.0%  B16..8:  0.9%  0.0%  0.0%  direct: 0.0%  skip:99.1%  L0:50.7% L1:49.1% BI: 0.2%\r\n[libx264 @ 000002ae472a2600] 8x8 transform intra:24.9% inter:39.0%\r\n[libx264 @ 000002ae472a2600] coded y,uvDC,uvAC intra: 23.9% 21.6% 18.3% inter: 0.1% 0.1% 0.1%\r\n[libx264 @ 000002ae472a2600] i16 v,h,dc,p: 47% 52%  1%  0%\r\n[libx264 @ 000002ae472a2600] i8 v,h,dc,ddl,ddr,vr,hd,vl,hu: 48% 19% 32%  0%  1%  0%  0%  0%  0%\r\n[libx264 @ 000002ae472a2600] i4 v,h,dc,ddl,ddr,vr,hd,vl,hu: 28% 38% 12%  2%  3%  3%  4%  3%  5%\r\n[libx264 @ 000002ae472a2600] i8c dc,h,v,p: 64% 29%  6%  1%\r\n[libx264 @ 000002ae472a2600] Weighted P-Frames: Y:0.0% UV:0.0%\r\n[libx264 @ 000002ae472a2600] ref P L0: 69.7%  9.0% 14.2%  7.1%\r\n[libx264 @ 000002ae472a2600] ref B L0: 73.2% 25.6%  1.3%\r\n[libx264 @ 000002ae472a2600] ref B L1: 96.5%  3.5%\r\n[libx264 @ 000002ae472a2600] kb/s:160.15\r\n[aac @ 000002ae473d7040] Qavg: 117.975\r\n"
    },
    _class: "com.xuecheng.framework.domain.media.MediaFile"
} ]);
db.getCollection("media_file").insert([ {
    _id: "d242f97e7d7528e1adb941e90485b21d",
    fileName: "d242f97e7d7528e1adb941e90485b21d.avi",
    fileOriginalName: "10-前端显示当前用户-jwt查询接口.avi",
    filePath: "/d/2/d242f97e7d7528e1adb941e90485b21d/",
    fileUrl: "/d/2/d242f97e7d7528e1adb941e90485b21d/10-前端显示当前用户-jwt查询接口.avi.avi",
    fileType: "avi",
    mimeType: "video/avi",
    fileSize: NumberLong("87172720"),
    fileStatus: "301002",
    uploadTime: ISODate("2020-05-22T08:36:54.745Z"),
    _class: "com.xuecheng.framework.domain.media.MediaFile"
} ]);
db.getCollection("media_file").insert([ {
    _id: "e9baaf84772de87df431b8108bd1da5e",
    fileName: "e9baaf84772de87df431b8108bd1da5e.avi",
    fileOriginalName: "17-在线学习接口-前端开发-根据课程计划id播放视频.avi",
    filePath: "/e/9/e9baaf84772de87df431b8108bd1da5e/",
    fileUrl: "/e/9/e9baaf84772de87df431b8108bd1da5e/hls/e9baaf84772de87df431b8108bd1da5e.m3u8",
    fileType: "avi",
    mimeType: "video/avi",
    fileSize: NumberLong("35038720"),
    fileStatus: "301002",
    uploadTime: ISODate("2020-05-22T08:49:12.65Z"),
    processStatus: "303002",
    "mediaFileProcess_m3u8": {
        tslist: [
            "e9baaf84772de87df431b8108bd1da5e_00000.ts",
            "e9baaf84772de87df431b8108bd1da5e_00001.ts",
            "e9baaf84772de87df431b8108bd1da5e_00002.ts",
            "e9baaf84772de87df431b8108bd1da5e_00003.ts",
            "e9baaf84772de87df431b8108bd1da5e_00004.ts",
            "e9baaf84772de87df431b8108bd1da5e_00005.ts",
            "e9baaf84772de87df431b8108bd1da5e_00006.ts",
            "e9baaf84772de87df431b8108bd1da5e_00007.ts",
            "e9baaf84772de87df431b8108bd1da5e_00008.ts",
            "e9baaf84772de87df431b8108bd1da5e_00009.ts",
            "e9baaf84772de87df431b8108bd1da5e_00010.ts",
            "e9baaf84772de87df431b8108bd1da5e_00011.ts",
            "e9baaf84772de87df431b8108bd1da5e_00012.ts",
            "e9baaf84772de87df431b8108bd1da5e_00013.ts",
            "e9baaf84772de87df431b8108bd1da5e_00014.ts",
            "e9baaf84772de87df431b8108bd1da5e_00015.ts",
            "e9baaf84772de87df431b8108bd1da5e_00016.ts",
            "e9baaf84772de87df431b8108bd1da5e_00017.ts",
            "e9baaf84772de87df431b8108bd1da5e_00018.ts",
            "e9baaf84772de87df431b8108bd1da5e_00019.ts",
            "e9baaf84772de87df431b8108bd1da5e_00020.ts",
            "e9baaf84772de87df431b8108bd1da5e_00021.ts",
            "e9baaf84772de87df431b8108bd1da5e_00022.ts",
            "e9baaf84772de87df431b8108bd1da5e_00023.ts",
            "e9baaf84772de87df431b8108bd1da5e_00024.ts",
            "e9baaf84772de87df431b8108bd1da5e_00025.ts",
            "e9baaf84772de87df431b8108bd1da5e_00026.ts",
            "e9baaf84772de87df431b8108bd1da5e_00027.ts",
            "e9baaf84772de87df431b8108bd1da5e_00028.ts",
            "e9baaf84772de87df431b8108bd1da5e_00029.ts",
            "e9baaf84772de87df431b8108bd1da5e_00030.ts",
            "e9baaf84772de87df431b8108bd1da5e_00031.ts",
            "e9baaf84772de87df431b8108bd1da5e_00032.ts",
            "e9baaf84772de87df431b8108bd1da5e_00033.ts",
            "e9baaf84772de87df431b8108bd1da5e_00034.ts",
            "e9baaf84772de87df431b8108bd1da5e_00035.ts",
            "e9baaf84772de87df431b8108bd1da5e_00036.ts",
            "e9baaf84772de87df431b8108bd1da5e_00037.ts",
            "e9baaf84772de87df431b8108bd1da5e_00038.ts",
            "e9baaf84772de87df431b8108bd1da5e_00039.ts",
            "e9baaf84772de87df431b8108bd1da5e_00040.ts",
            "e9baaf84772de87df431b8108bd1da5e_00041.ts",
            "e9baaf84772de87df431b8108bd1da5e_00042.ts",
            "e9baaf84772de87df431b8108bd1da5e_00043.ts",
            "e9baaf84772de87df431b8108bd1da5e_00044.ts",
            "e9baaf84772de87df431b8108bd1da5e_00045.ts",
            "e9baaf84772de87df431b8108bd1da5e_00046.ts",
            "e9baaf84772de87df431b8108bd1da5e_00047.ts",
            "e9baaf84772de87df431b8108bd1da5e_00048.ts",
            "e9baaf84772de87df431b8108bd1da5e_00049.ts",
            "e9baaf84772de87df431b8108bd1da5e_00050.ts",
            "e9baaf84772de87df431b8108bd1da5e_00051.ts",
            "e9baaf84772de87df431b8108bd1da5e_00052.ts",
            "e9baaf84772de87df431b8108bd1da5e_00053.ts",
            "e9baaf84772de87df431b8108bd1da5e_00054.ts",
            "e9baaf84772de87df431b8108bd1da5e_00055.ts",
            "e9baaf84772de87df431b8108bd1da5e_00056.ts",
            "e9baaf84772de87df431b8108bd1da5e_00057.ts",
            "e9baaf84772de87df431b8108bd1da5e_00058.ts",
            "e9baaf84772de87df431b8108bd1da5e_00059.ts",
            "e9baaf84772de87df431b8108bd1da5e_00060.ts",
            "e9baaf84772de87df431b8108bd1da5e_00061.ts",
            "e9baaf84772de87df431b8108bd1da5e_00062.ts",
            "e9baaf84772de87df431b8108bd1da5e_00063.ts",
            "e9baaf84772de87df431b8108bd1da5e_00064.ts",
            "e9baaf84772de87df431b8108bd1da5e_00065.ts",
            "e9baaf84772de87df431b8108bd1da5e_00066.ts"
        ]
    },
    _class: "com.xuecheng.framework.domain.media.MediaFile"
} ]);
db.getCollection("media_file").insert([ {
    _id: "d2f19b2856996b77709aa5e76b7ba139",
    fileName: "d2f19b2856996b77709aa5e76b7ba139.avi",
    fileOriginalName: "10-学习页面获取视频播放地址-搜索服务查询课程媒资接口-测试.avi",
    filePath: "/d/2/d2f19b2856996b77709aa5e76b7ba139/",
    fileUrl: "/d/2/d2f19b2856996b77709aa5e76b7ba139/hls/d2f19b2856996b77709aa5e76b7ba139.m3u8",
    fileType: "avi",
    mimeType: "video/avi",
    fileSize: NumberLong("7933952"),
    fileStatus: "301002",
    uploadTime: ISODate("2020-05-22T09:23:25.334Z"),
    processStatus: "303002",
    "mediaFileProcess_m3u8": {
        tslist: [
            "d2f19b2856996b77709aa5e76b7ba139_00000.ts",
            "d2f19b2856996b77709aa5e76b7ba139_00001.ts",
            "d2f19b2856996b77709aa5e76b7ba139_00002.ts",
            "d2f19b2856996b77709aa5e76b7ba139_00003.ts",
            "d2f19b2856996b77709aa5e76b7ba139_00004.ts",
            "d2f19b2856996b77709aa5e76b7ba139_00005.ts",
            "d2f19b2856996b77709aa5e76b7ba139_00006.ts",
            "d2f19b2856996b77709aa5e76b7ba139_00007.ts",
            "d2f19b2856996b77709aa5e76b7ba139_00008.ts",
            "d2f19b2856996b77709aa5e76b7ba139_00009.ts",
            "d2f19b2856996b77709aa5e76b7ba139_00010.ts",
            "d2f19b2856996b77709aa5e76b7ba139_00011.ts",
            "d2f19b2856996b77709aa5e76b7ba139_00012.ts"
        ]
    },
    _class: "com.xuecheng.framework.domain.media.MediaFile"
} ]);
db.getCollection("media_file").insert([ {
    _id: "d1d933a1365c6192f4a350e99b42373f",
    fileName: "d1d933a1365c6192f4a350e99b42373f.avi",
    fileOriginalName: "16-项目总结-项目技术架构-注册中心和网关.avi",
    filePath: "/d/1/d1d933a1365c6192f4a350e99b42373f/",
    fileUrl: "/d/1/d1d933a1365c6192f4a350e99b42373f/16-项目总结-项目技术架构-注册中心和网关.avi.avi",
    fileType: "avi",
    mimeType: "video/avi",
    fileSize: NumberLong("6958592"),
    fileStatus: "301002",
    uploadTime: ISODate("2020-07-03T13:31:52.247Z"),
    _class: "com.xuecheng.framework.domain.media.MediaFile"
} ]);
db.getCollection("media_file").insert([ {
    _id: "09762893b00e778420df99e2957da254",
    fileName: "09762893b00e778420df99e2957da254.avi",
    fileOriginalName: "03-Git&GitLab-使用Git管理项目.avi",
    filePath: "/0/9/09762893b00e778420df99e2957da254/",
    fileUrl: "/0/9/09762893b00e778420df99e2957da254/03-Git&GitLab-使用Git管理项目.avi.avi",
    fileType: "avi",
    mimeType: "video/avi",
    fileSize: NumberLong("32125440"),
    fileStatus: "301002",
    uploadTime: ISODate("2020-07-03T13:32:15.77Z"),
    _class: "com.xuecheng.framework.domain.media.MediaFile"
} ]);
db.getCollection("media_file").insert([ {
    _id: "c6b5b047793b3ddce42d13eeb7f323a6",
    fileName: "c6b5b047793b3ddce42d13eeb7f323a6.avi",
    fileOriginalName: "14-项目总结-项目技术架构-微服务技术栈.avi",
    filePath: "/c/6/c6b5b047793b3ddce42d13eeb7f323a6/",
    fileUrl: "/c/6/c6b5b047793b3ddce42d13eeb7f323a6/14-项目总结-项目技术架构-微服务技术栈.avi.avi",
    fileType: "avi",
    mimeType: "video/avi",
    fileSize: NumberLong("7175680"),
    fileStatus: "301002",
    uploadTime: ISODate("2020-07-03T13:34:45.498Z"),
    _class: "com.xuecheng.framework.domain.media.MediaFile"
} ]);
db.getCollection("media_file").insert([ {
    _id: "93b9586426094f42137c42b3b3164bab",
    fileName: "93b9586426094f42137c42b3b3164bab.avi",
    fileOriginalName: "18-项目总结-前后端开发流程及前端技术栈.avi",
    filePath: "/9/3/93b9586426094f42137c42b3b3164bab/",
    fileUrl: "/9/3/93b9586426094f42137c42b3b3164bab/18-项目总结-前后端开发流程及前端技术栈.avi.avi",
    fileType: "avi",
    mimeType: "video/avi",
    fileSize: NumberLong("33789660"),
    fileStatus: "301002",
    uploadTime: ISODate("2020-07-03T13:44:01.12Z"),
    _class: "com.xuecheng.framework.domain.media.MediaFile"
} ]);
db.getCollection("media_file").insert([ {
    _id: "6ee758bb7a4d16ba686ff38028214d89",
    fileName: "6ee758bb7a4d16ba686ff38028214d89.avi",
    fileOriginalName: "10-持续集成-自动构建.avi",
    filePath: "/6/e/6ee758bb7a4d16ba686ff38028214d89/",
    fileUrl: "/6/e/6ee758bb7a4d16ba686ff38028214d89/10-持续集成-自动构建.avi.avi",
    fileType: "avi",
    mimeType: "video/avi",
    fileSize: NumberLong("16223744"),
    fileStatus: "301002",
    uploadTime: ISODate("2020-07-03T13:45:36.561Z"),
    _class: "com.xuecheng.framework.domain.media.MediaFile"
} ]);
db.getCollection("media_file").insert([ {
    _id: "2d4957671aab420462e9d4718a973aeb",
    fileName: "2d4957671aab420462e9d4718a973aeb.avi",
    fileOriginalName: "02-Git&GitLab-在GitLab创建项目.avi",
    filePath: "/2/d/2d4957671aab420462e9d4718a973aeb/",
    fileUrl: "/2/d/2d4957671aab420462e9d4718a973aeb/02-Git&GitLab-在GitLab创建项目.avi.avi",
    fileType: "avi",
    mimeType: "video/avi",
    fileSize: NumberLong("25178112"),
    fileStatus: "301002",
    uploadTime: ISODate("2020-07-03T13:46:32.306Z"),
    _class: "com.xuecheng.framework.domain.media.MediaFile"
} ]);
db.getCollection("media_file").insert([ {
    _id: "a6a766902fd671ed840e8ec2953f5c75",
    fileName: "a6a766902fd671ed840e8ec2953f5c75.avi",
    fileOriginalName: "01-devops介绍.avi",
    filePath: "/a/6/a6a766902fd671ed840e8ec2953f5c75/",
    fileUrl: "/a/6/a6a766902fd671ed840e8ec2953f5c75/01-devops介绍.avi.avi",
    fileType: "avi",
    mimeType: "video/avi",
    fileSize: NumberLong("34230272"),
    fileStatus: "301002",
    uploadTime: ISODate("2020-07-03T13:47:59.296Z"),
    _class: "com.xuecheng.framework.domain.media.MediaFile"
} ]);

// ----------------------------
// Collection structure for media_video
// ----------------------------
db.getCollection("media_video").drop();
db.createCollection("media_video");

// ----------------------------
// Documents of media_video
// ----------------------------

// ----------------------------
// Collection structure for media_video_course
// ----------------------------
db.getCollection("media_video_course").drop();
db.createCollection("media_video_course");

// ----------------------------
// Documents of media_video_course
// ----------------------------
db.getCollection("media_video_course").insert([ {
    _id: "e7cc6ed5732699f2618a541da7882105",
    _class: "com.xuecheng.framework.domain.media.MediaVideoCourse",
    courseid: "4028e581617f945f01617f9dabc40000",
    chapter: "3",
    fileId: "c5c75d70f382e6016d2f506d134eee11",
    processType: "302002",
    processStatus: "303002",
    "hls_m3u8": "/video/c/5/c/c5c75d70f382e6016d2f506d134eee11/hls/c5c75d70f382e6016d2f506d134eee11.m3u8",
    "hls_ts_list": [
        "/c/5/c/c5c75d70f382e6016d2f506d134eee11/hls/c5c75d70f382e6016d2f506d134eee11_00000.ts",
        "/c/5/c/c5c75d70f382e6016d2f506d134eee11/hls/c5c75d70f382e6016d2f506d134eee11_00001.ts",
        "/c/5/c/c5c75d70f382e6016d2f506d134eee11/hls/c5c75d70f382e6016d2f506d134eee11_00002.ts",
        "/c/5/c/c5c75d70f382e6016d2f506d134eee11/hls/c5c75d70f382e6016d2f506d134eee11_00003.ts",
        "/c/5/c/c5c75d70f382e6016d2f506d134eee11/hls/c5c75d70f382e6016d2f506d134eee11_00004.ts",
        "/c/5/c/c5c75d70f382e6016d2f506d134eee11/hls/c5c75d70f382e6016d2f506d134eee11_00005.ts",
        "/c/5/c/c5c75d70f382e6016d2f506d134eee11/hls/c5c75d70f382e6016d2f506d134eee11_00006.ts",
        "/c/5/c/c5c75d70f382e6016d2f506d134eee11/hls/c5c75d70f382e6016d2f506d134eee11_00007.ts",
        "/c/5/c/c5c75d70f382e6016d2f506d134eee11/hls/c5c75d70f382e6016d2f506d134eee11_00008.ts",
        "/c/5/c/c5c75d70f382e6016d2f506d134eee11/hls/c5c75d70f382e6016d2f506d134eee11_00009.ts",
        "/c/5/c/c5c75d70f382e6016d2f506d134eee11/hls/c5c75d70f382e6016d2f506d134eee11_00010.ts",
        "/c/5/c/c5c75d70f382e6016d2f506d134eee11/hls/c5c75d70f382e6016d2f506d134eee11_00011.ts",
        "/c/5/c/c5c75d70f382e6016d2f506d134eee11/hls/c5c75d70f382e6016d2f506d134eee11_00012.ts",
        "/c/5/c/c5c75d70f382e6016d2f506d134eee11/hls/c5c75d70f382e6016d2f506d134eee11_00013.ts",
        "/c/5/c/c5c75d70f382e6016d2f506d134eee11/hls/c5c75d70f382e6016d2f506d134eee11_00014.ts",
        "/c/5/c/c5c75d70f382e6016d2f506d134eee11/hls/c5c75d70f382e6016d2f506d134eee11_00015.ts",
        "/c/5/c/c5c75d70f382e6016d2f506d134eee11/hls/c5c75d70f382e6016d2f506d134eee11_00016.ts",
        "/c/5/c/c5c75d70f382e6016d2f506d134eee11/hls/c5c75d70f382e6016d2f506d134eee11_00017.ts",
        "/c/5/c/c5c75d70f382e6016d2f506d134eee11/hls/c5c75d70f382e6016d2f506d134eee11_00018.ts",
        "/c/5/c/c5c75d70f382e6016d2f506d134eee11/hls/c5c75d70f382e6016d2f506d134eee11_00019.ts",
        "/c/5/c/c5c75d70f382e6016d2f506d134eee11/hls/c5c75d70f382e6016d2f506d134eee11_00020.ts",
        "/c/5/c/c5c75d70f382e6016d2f506d134eee11/hls/c5c75d70f382e6016d2f506d134eee11_00021.ts",
        "/c/5/c/c5c75d70f382e6016d2f506d134eee11/hls/c5c75d70f382e6016d2f506d134eee11_00022.ts",
        "/c/5/c/c5c75d70f382e6016d2f506d134eee11/hls/c5c75d70f382e6016d2f506d134eee11_00023.ts",
        "/c/5/c/c5c75d70f382e6016d2f506d134eee11/hls/c5c75d70f382e6016d2f506d134eee11_00024.ts",
        "/c/5/c/c5c75d70f382e6016d2f506d134eee11/hls/c5c75d70f382e6016d2f506d134eee11_00025.ts",
        "/c/5/c/c5c75d70f382e6016d2f506d134eee11/hls/c5c75d70f382e6016d2f506d134eee11_00026.ts",
        "/c/5/c/c5c75d70f382e6016d2f506d134eee11/hls/c5c75d70f382e6016d2f506d134eee11_00027.ts",
        "/c/5/c/c5c75d70f382e6016d2f506d134eee11/hls/c5c75d70f382e6016d2f506d134eee11_00028.ts",
        "/c/5/c/c5c75d70f382e6016d2f506d134eee11/hls/c5c75d70f382e6016d2f506d134eee11_00029.ts",
        "/c/5/c/c5c75d70f382e6016d2f506d134eee11/hls/c5c75d70f382e6016d2f506d134eee11_00030.ts",
        "/c/5/c/c5c75d70f382e6016d2f506d134eee11/hls/c5c75d70f382e6016d2f506d134eee11_00031.ts",
        "/c/5/c/c5c75d70f382e6016d2f506d134eee11/hls/c5c75d70f382e6016d2f506d134eee11_00032.ts",
        "/c/5/c/c5c75d70f382e6016d2f506d134eee11/hls/c5c75d70f382e6016d2f506d134eee11_00033.ts",
        "/c/5/c/c5c75d70f382e6016d2f506d134eee11/hls/c5c75d70f382e6016d2f506d134eee11_00034.ts",
        "/c/5/c/c5c75d70f382e6016d2f506d134eee11/hls/c5c75d70f382e6016d2f506d134eee11_00035.ts",
        "/c/5/c/c5c75d70f382e6016d2f506d134eee11/hls/c5c75d70f382e6016d2f506d134eee11_00036.ts",
        "/c/5/c/c5c75d70f382e6016d2f506d134eee11/hls/c5c75d70f382e6016d2f506d134eee11_00037.ts",
        "/c/5/c/c5c75d70f382e6016d2f506d134eee11/hls/c5c75d70f382e6016d2f506d134eee11_00038.ts",
        "/c/5/c/c5c75d70f382e6016d2f506d134eee11/hls/c5c75d70f382e6016d2f506d134eee11_00039.ts",
        "/c/5/c/c5c75d70f382e6016d2f506d134eee11/hls/c5c75d70f382e6016d2f506d134eee11_00040.ts",
        "/c/5/c/c5c75d70f382e6016d2f506d134eee11/hls/c5c75d70f382e6016d2f506d134eee11_00041.ts",
        "/c/5/c/c5c75d70f382e6016d2f506d134eee11/hls/c5c75d70f382e6016d2f506d134eee11_00042.ts",
        "/c/5/c/c5c75d70f382e6016d2f506d134eee11/hls/c5c75d70f382e6016d2f506d134eee11_00043.ts",
        "/c/5/c/c5c75d70f382e6016d2f506d134eee11/hls/c5c75d70f382e6016d2f506d134eee11_00044.ts",
        "/c/5/c/c5c75d70f382e6016d2f506d134eee11/hls/c5c75d70f382e6016d2f506d134eee11_00045.ts",
        "/c/5/c/c5c75d70f382e6016d2f506d134eee11/hls/c5c75d70f382e6016d2f506d134eee11_00046.ts",
        "/c/5/c/c5c75d70f382e6016d2f506d134eee11/hls/c5c75d70f382e6016d2f506d134eee11_00047.ts",
        "/c/5/c/c5c75d70f382e6016d2f506d134eee11/hls/c5c75d70f382e6016d2f506d134eee11_00048.ts",
        "/c/5/c/c5c75d70f382e6016d2f506d134eee11/hls/c5c75d70f382e6016d2f506d134eee11_00049.ts",
        "/c/5/c/c5c75d70f382e6016d2f506d134eee11/hls/c5c75d70f382e6016d2f506d134eee11_00050.ts",
        "/c/5/c/c5c75d70f382e6016d2f506d134eee11/hls/c5c75d70f382e6016d2f506d134eee11_00051.ts",
        "/c/5/c/c5c75d70f382e6016d2f506d134eee11/hls/c5c75d70f382e6016d2f506d134eee11_00052.ts"
    ]
} ]);
db.getCollection("media_video_course").insert([ {
    _id: "2483ccaeaea9c35fb3e16e2e3fe8cf18",
    _class: "com.xuecheng.framework.domain.media.MediaVideoCourse",
    courseid: "4028e581617f945f01617f9dabc40000",
    chapter: "4",
    fileId: "bcb3f3d4f93607c0f21a208216f1e636",
    processType: "302002",
    processStatus: "303002",
    "hls_m3u8": "/video/b/c/b/bcb3f3d4f93607c0f21a208216f1e636/hls/bcb3f3d4f93607c0f21a208216f1e636.m3u8",
    "hls_ts_list": [
        "/b/c/b/bcb3f3d4f93607c0f21a208216f1e636/hls/bcb3f3d4f93607c0f21a208216f1e636_00000.ts",
        "/b/c/b/bcb3f3d4f93607c0f21a208216f1e636/hls/bcb3f3d4f93607c0f21a208216f1e636_00001.ts",
        "/b/c/b/bcb3f3d4f93607c0f21a208216f1e636/hls/bcb3f3d4f93607c0f21a208216f1e636_00002.ts",
        "/b/c/b/bcb3f3d4f93607c0f21a208216f1e636/hls/bcb3f3d4f93607c0f21a208216f1e636_00003.ts",
        "/b/c/b/bcb3f3d4f93607c0f21a208216f1e636/hls/bcb3f3d4f93607c0f21a208216f1e636_00004.ts",
        "/b/c/b/bcb3f3d4f93607c0f21a208216f1e636/hls/bcb3f3d4f93607c0f21a208216f1e636_00005.ts",
        "/b/c/b/bcb3f3d4f93607c0f21a208216f1e636/hls/bcb3f3d4f93607c0f21a208216f1e636_00006.ts",
        "/b/c/b/bcb3f3d4f93607c0f21a208216f1e636/hls/bcb3f3d4f93607c0f21a208216f1e636_00007.ts",
        "/b/c/b/bcb3f3d4f93607c0f21a208216f1e636/hls/bcb3f3d4f93607c0f21a208216f1e636_00008.ts",
        "/b/c/b/bcb3f3d4f93607c0f21a208216f1e636/hls/bcb3f3d4f93607c0f21a208216f1e636_00009.ts",
        "/b/c/b/bcb3f3d4f93607c0f21a208216f1e636/hls/bcb3f3d4f93607c0f21a208216f1e636_00010.ts",
        "/b/c/b/bcb3f3d4f93607c0f21a208216f1e636/hls/bcb3f3d4f93607c0f21a208216f1e636_00011.ts",
        "/b/c/b/bcb3f3d4f93607c0f21a208216f1e636/hls/bcb3f3d4f93607c0f21a208216f1e636_00012.ts",
        "/b/c/b/bcb3f3d4f93607c0f21a208216f1e636/hls/bcb3f3d4f93607c0f21a208216f1e636_00013.ts",
        "/b/c/b/bcb3f3d4f93607c0f21a208216f1e636/hls/bcb3f3d4f93607c0f21a208216f1e636_00014.ts",
        "/b/c/b/bcb3f3d4f93607c0f21a208216f1e636/hls/bcb3f3d4f93607c0f21a208216f1e636_00015.ts",
        "/b/c/b/bcb3f3d4f93607c0f21a208216f1e636/hls/bcb3f3d4f93607c0f21a208216f1e636_00016.ts",
        "/b/c/b/bcb3f3d4f93607c0f21a208216f1e636/hls/bcb3f3d4f93607c0f21a208216f1e636_00017.ts",
        "/b/c/b/bcb3f3d4f93607c0f21a208216f1e636/hls/bcb3f3d4f93607c0f21a208216f1e636_00018.ts",
        "/b/c/b/bcb3f3d4f93607c0f21a208216f1e636/hls/bcb3f3d4f93607c0f21a208216f1e636_00019.ts",
        "/b/c/b/bcb3f3d4f93607c0f21a208216f1e636/hls/bcb3f3d4f93607c0f21a208216f1e636_00020.ts",
        "/b/c/b/bcb3f3d4f93607c0f21a208216f1e636/hls/bcb3f3d4f93607c0f21a208216f1e636_00021.ts",
        "/b/c/b/bcb3f3d4f93607c0f21a208216f1e636/hls/bcb3f3d4f93607c0f21a208216f1e636_00022.ts",
        "/b/c/b/bcb3f3d4f93607c0f21a208216f1e636/hls/bcb3f3d4f93607c0f21a208216f1e636_00023.ts",
        "/b/c/b/bcb3f3d4f93607c0f21a208216f1e636/hls/bcb3f3d4f93607c0f21a208216f1e636_00024.ts",
        "/b/c/b/bcb3f3d4f93607c0f21a208216f1e636/hls/bcb3f3d4f93607c0f21a208216f1e636_00025.ts",
        "/b/c/b/bcb3f3d4f93607c0f21a208216f1e636/hls/bcb3f3d4f93607c0f21a208216f1e636_00026.ts",
        "/b/c/b/bcb3f3d4f93607c0f21a208216f1e636/hls/bcb3f3d4f93607c0f21a208216f1e636_00027.ts",
        "/b/c/b/bcb3f3d4f93607c0f21a208216f1e636/hls/bcb3f3d4f93607c0f21a208216f1e636_00028.ts",
        "/b/c/b/bcb3f3d4f93607c0f21a208216f1e636/hls/bcb3f3d4f93607c0f21a208216f1e636_00029.ts",
        "/b/c/b/bcb3f3d4f93607c0f21a208216f1e636/hls/bcb3f3d4f93607c0f21a208216f1e636_00030.ts",
        "/b/c/b/bcb3f3d4f93607c0f21a208216f1e636/hls/bcb3f3d4f93607c0f21a208216f1e636_00031.ts",
        "/b/c/b/bcb3f3d4f93607c0f21a208216f1e636/hls/bcb3f3d4f93607c0f21a208216f1e636_00032.ts",
        "/b/c/b/bcb3f3d4f93607c0f21a208216f1e636/hls/bcb3f3d4f93607c0f21a208216f1e636_00033.ts",
        "/b/c/b/bcb3f3d4f93607c0f21a208216f1e636/hls/bcb3f3d4f93607c0f21a208216f1e636_00034.ts",
        "/b/c/b/bcb3f3d4f93607c0f21a208216f1e636/hls/bcb3f3d4f93607c0f21a208216f1e636_00035.ts",
        "/b/c/b/bcb3f3d4f93607c0f21a208216f1e636/hls/bcb3f3d4f93607c0f21a208216f1e636_00036.ts",
        "/b/c/b/bcb3f3d4f93607c0f21a208216f1e636/hls/bcb3f3d4f93607c0f21a208216f1e636_00037.ts",
        "/b/c/b/bcb3f3d4f93607c0f21a208216f1e636/hls/bcb3f3d4f93607c0f21a208216f1e636_00038.ts",
        "/b/c/b/bcb3f3d4f93607c0f21a208216f1e636/hls/bcb3f3d4f93607c0f21a208216f1e636_00039.ts",
        "/b/c/b/bcb3f3d4f93607c0f21a208216f1e636/hls/bcb3f3d4f93607c0f21a208216f1e636_00040.ts",
        "/b/c/b/bcb3f3d4f93607c0f21a208216f1e636/hls/bcb3f3d4f93607c0f21a208216f1e636_00041.ts"
    ]
} ]);
db.getCollection("media_video_course").insert([ {
    _id: "0f475cbc60103faaabf401e9679d00ab",
    _class: "com.xuecheng.framework.domain.media.MediaVideoCourse",
    courseid: "4028e581617f945f01617f9dabc40000",
    chapter: "6",
    fileId: "a213ebf5c6ebbf807783f2032f62bdf8",
    processType: "302002",
    processStatus: "303002",
    "hls_m3u8": "/video/a/2/1/a213ebf5c6ebbf807783f2032f62bdf8/hls/a213ebf5c6ebbf807783f2032f62bdf8.m3u8",
    "hls_ts_list": [
        "/video/a/2/1/a213ebf5c6ebbf807783f2032f62bdf8/hls/a213ebf5c6ebbf807783f2032f62bdf8_00000.ts",
        "/video/a/2/1/a213ebf5c6ebbf807783f2032f62bdf8/hls/a213ebf5c6ebbf807783f2032f62bdf8_00001.ts",
        "/video/a/2/1/a213ebf5c6ebbf807783f2032f62bdf8/hls/a213ebf5c6ebbf807783f2032f62bdf8_00002.ts",
        "/video/a/2/1/a213ebf5c6ebbf807783f2032f62bdf8/hls/a213ebf5c6ebbf807783f2032f62bdf8_00003.ts",
        "/video/a/2/1/a213ebf5c6ebbf807783f2032f62bdf8/hls/a213ebf5c6ebbf807783f2032f62bdf8_00004.ts",
        "/video/a/2/1/a213ebf5c6ebbf807783f2032f62bdf8/hls/a213ebf5c6ebbf807783f2032f62bdf8_00005.ts",
        "/video/a/2/1/a213ebf5c6ebbf807783f2032f62bdf8/hls/a213ebf5c6ebbf807783f2032f62bdf8_00006.ts",
        "/video/a/2/1/a213ebf5c6ebbf807783f2032f62bdf8/hls/a213ebf5c6ebbf807783f2032f62bdf8_00007.ts",
        "/video/a/2/1/a213ebf5c6ebbf807783f2032f62bdf8/hls/a213ebf5c6ebbf807783f2032f62bdf8_00008.ts",
        "/video/a/2/1/a213ebf5c6ebbf807783f2032f62bdf8/hls/a213ebf5c6ebbf807783f2032f62bdf8_00009.ts",
        "/video/a/2/1/a213ebf5c6ebbf807783f2032f62bdf8/hls/a213ebf5c6ebbf807783f2032f62bdf8_00010.ts",
        "/video/a/2/1/a213ebf5c6ebbf807783f2032f62bdf8/hls/a213ebf5c6ebbf807783f2032f62bdf8_00011.ts",
        "/video/a/2/1/a213ebf5c6ebbf807783f2032f62bdf8/hls/a213ebf5c6ebbf807783f2032f62bdf8_00012.ts",
        "/video/a/2/1/a213ebf5c6ebbf807783f2032f62bdf8/hls/a213ebf5c6ebbf807783f2032f62bdf8_00013.ts",
        "/video/a/2/1/a213ebf5c6ebbf807783f2032f62bdf8/hls/a213ebf5c6ebbf807783f2032f62bdf8_00014.ts",
        "/video/a/2/1/a213ebf5c6ebbf807783f2032f62bdf8/hls/a213ebf5c6ebbf807783f2032f62bdf8_00015.ts",
        "/video/a/2/1/a213ebf5c6ebbf807783f2032f62bdf8/hls/a213ebf5c6ebbf807783f2032f62bdf8_00016.ts",
        "/video/a/2/1/a213ebf5c6ebbf807783f2032f62bdf8/hls/a213ebf5c6ebbf807783f2032f62bdf8_00017.ts",
        "/video/a/2/1/a213ebf5c6ebbf807783f2032f62bdf8/hls/a213ebf5c6ebbf807783f2032f62bdf8_00018.ts",
        "/video/a/2/1/a213ebf5c6ebbf807783f2032f62bdf8/hls/a213ebf5c6ebbf807783f2032f62bdf8_00019.ts",
        "/video/a/2/1/a213ebf5c6ebbf807783f2032f62bdf8/hls/a213ebf5c6ebbf807783f2032f62bdf8_00020.ts",
        "/video/a/2/1/a213ebf5c6ebbf807783f2032f62bdf8/hls/a213ebf5c6ebbf807783f2032f62bdf8_00021.ts",
        "/video/a/2/1/a213ebf5c6ebbf807783f2032f62bdf8/hls/a213ebf5c6ebbf807783f2032f62bdf8_00022.ts",
        "/video/a/2/1/a213ebf5c6ebbf807783f2032f62bdf8/hls/a213ebf5c6ebbf807783f2032f62bdf8_00023.ts",
        "/video/a/2/1/a213ebf5c6ebbf807783f2032f62bdf8/hls/a213ebf5c6ebbf807783f2032f62bdf8_00024.ts",
        "/video/a/2/1/a213ebf5c6ebbf807783f2032f62bdf8/hls/a213ebf5c6ebbf807783f2032f62bdf8_00025.ts",
        "/video/a/2/1/a213ebf5c6ebbf807783f2032f62bdf8/hls/a213ebf5c6ebbf807783f2032f62bdf8_00026.ts",
        "/video/a/2/1/a213ebf5c6ebbf807783f2032f62bdf8/hls/a213ebf5c6ebbf807783f2032f62bdf8_00027.ts",
        "/video/a/2/1/a213ebf5c6ebbf807783f2032f62bdf8/hls/a213ebf5c6ebbf807783f2032f62bdf8_00028.ts",
        "/video/a/2/1/a213ebf5c6ebbf807783f2032f62bdf8/hls/a213ebf5c6ebbf807783f2032f62bdf8_00029.ts",
        "/video/a/2/1/a213ebf5c6ebbf807783f2032f62bdf8/hls/a213ebf5c6ebbf807783f2032f62bdf8_00030.ts",
        "/video/a/2/1/a213ebf5c6ebbf807783f2032f62bdf8/hls/a213ebf5c6ebbf807783f2032f62bdf8_00031.ts",
        "/video/a/2/1/a213ebf5c6ebbf807783f2032f62bdf8/hls/a213ebf5c6ebbf807783f2032f62bdf8_00032.ts",
        "/video/a/2/1/a213ebf5c6ebbf807783f2032f62bdf8/hls/a213ebf5c6ebbf807783f2032f62bdf8_00033.ts",
        "/video/a/2/1/a213ebf5c6ebbf807783f2032f62bdf8/hls/a213ebf5c6ebbf807783f2032f62bdf8_00034.ts",
        "/video/a/2/1/a213ebf5c6ebbf807783f2032f62bdf8/hls/a213ebf5c6ebbf807783f2032f62bdf8_00035.ts",
        "/video/a/2/1/a213ebf5c6ebbf807783f2032f62bdf8/hls/a213ebf5c6ebbf807783f2032f62bdf8_00036.ts",
        "/video/a/2/1/a213ebf5c6ebbf807783f2032f62bdf8/hls/a213ebf5c6ebbf807783f2032f62bdf8_00037.ts",
        "/video/a/2/1/a213ebf5c6ebbf807783f2032f62bdf8/hls/a213ebf5c6ebbf807783f2032f62bdf8_00038.ts",
        "/video/a/2/1/a213ebf5c6ebbf807783f2032f62bdf8/hls/a213ebf5c6ebbf807783f2032f62bdf8_00039.ts",
        "/video/a/2/1/a213ebf5c6ebbf807783f2032f62bdf8/hls/a213ebf5c6ebbf807783f2032f62bdf8_00040.ts",
        "/video/a/2/1/a213ebf5c6ebbf807783f2032f62bdf8/hls/a213ebf5c6ebbf807783f2032f62bdf8_00041.ts",
        "/video/a/2/1/a213ebf5c6ebbf807783f2032f62bdf8/hls/a213ebf5c6ebbf807783f2032f62bdf8_00042.ts",
        "/video/a/2/1/a213ebf5c6ebbf807783f2032f62bdf8/hls/a213ebf5c6ebbf807783f2032f62bdf8_00043.ts",
        "/video/a/2/1/a213ebf5c6ebbf807783f2032f62bdf8/hls/a213ebf5c6ebbf807783f2032f62bdf8_00044.ts",
        "/video/a/2/1/a213ebf5c6ebbf807783f2032f62bdf8/hls/a213ebf5c6ebbf807783f2032f62bdf8_00045.ts",
        "/video/a/2/1/a213ebf5c6ebbf807783f2032f62bdf8/hls/a213ebf5c6ebbf807783f2032f62bdf8_00046.ts",
        "/video/a/2/1/a213ebf5c6ebbf807783f2032f62bdf8/hls/a213ebf5c6ebbf807783f2032f62bdf8_00047.ts",
        "/video/a/2/1/a213ebf5c6ebbf807783f2032f62bdf8/hls/a213ebf5c6ebbf807783f2032f62bdf8_00048.ts",
        "/video/a/2/1/a213ebf5c6ebbf807783f2032f62bdf8/hls/a213ebf5c6ebbf807783f2032f62bdf8_00049.ts",
        "/video/a/2/1/a213ebf5c6ebbf807783f2032f62bdf8/hls/a213ebf5c6ebbf807783f2032f62bdf8_00050.ts",
        "/video/a/2/1/a213ebf5c6ebbf807783f2032f62bdf8/hls/a213ebf5c6ebbf807783f2032f62bdf8_00051.ts",
        "/video/a/2/1/a213ebf5c6ebbf807783f2032f62bdf8/hls/a213ebf5c6ebbf807783f2032f62bdf8_00052.ts",
        "/video/a/2/1/a213ebf5c6ebbf807783f2032f62bdf8/hls/a213ebf5c6ebbf807783f2032f62bdf8_00053.ts",
        "/video/a/2/1/a213ebf5c6ebbf807783f2032f62bdf8/hls/a213ebf5c6ebbf807783f2032f62bdf8_00054.ts",
        "/video/a/2/1/a213ebf5c6ebbf807783f2032f62bdf8/hls/a213ebf5c6ebbf807783f2032f62bdf8_00055.ts",
        "/video/a/2/1/a213ebf5c6ebbf807783f2032f62bdf8/hls/a213ebf5c6ebbf807783f2032f62bdf8_00056.ts"
    ]
} ]);
db.getCollection("media_video_course").insert([ {
    _id: "c7db295332c69c4f6023f3f014b743e7",
    _class: "com.xuecheng.framework.domain.media.MediaVideoCourse",
    courseid: "402885816240d276016240f7e5000002",
    chapter: "402885816240d2760162414102fd000c",
    fileId: "e20033c4ad8e580cc820a11193ac7ce7",
    processType: "302002",
    processStatus: "303002",
    "hls_m3u8": "/video/e/2/0/e20033c4ad8e580cc820a11193ac7ce7/hls/e20033c4ad8e580cc820a11193ac7ce7.m3u8",
    "hls_ts_list": [
        "/video/e/2/0/e20033c4ad8e580cc820a11193ac7ce7/hls/e20033c4ad8e580cc820a11193ac7ce7_00000.ts",
        "/video/e/2/0/e20033c4ad8e580cc820a11193ac7ce7/hls/e20033c4ad8e580cc820a11193ac7ce7_00001.ts",
        "/video/e/2/0/e20033c4ad8e580cc820a11193ac7ce7/hls/e20033c4ad8e580cc820a11193ac7ce7_00002.ts",
        "/video/e/2/0/e20033c4ad8e580cc820a11193ac7ce7/hls/e20033c4ad8e580cc820a11193ac7ce7_00003.ts",
        "/video/e/2/0/e20033c4ad8e580cc820a11193ac7ce7/hls/e20033c4ad8e580cc820a11193ac7ce7_00004.ts",
        "/video/e/2/0/e20033c4ad8e580cc820a11193ac7ce7/hls/e20033c4ad8e580cc820a11193ac7ce7_00005.ts",
        "/video/e/2/0/e20033c4ad8e580cc820a11193ac7ce7/hls/e20033c4ad8e580cc820a11193ac7ce7_00006.ts",
        "/video/e/2/0/e20033c4ad8e580cc820a11193ac7ce7/hls/e20033c4ad8e580cc820a11193ac7ce7_00007.ts",
        "/video/e/2/0/e20033c4ad8e580cc820a11193ac7ce7/hls/e20033c4ad8e580cc820a11193ac7ce7_00008.ts",
        "/video/e/2/0/e20033c4ad8e580cc820a11193ac7ce7/hls/e20033c4ad8e580cc820a11193ac7ce7_00009.ts",
        "/video/e/2/0/e20033c4ad8e580cc820a11193ac7ce7/hls/e20033c4ad8e580cc820a11193ac7ce7_00010.ts",
        "/video/e/2/0/e20033c4ad8e580cc820a11193ac7ce7/hls/e20033c4ad8e580cc820a11193ac7ce7_00011.ts",
        "/video/e/2/0/e20033c4ad8e580cc820a11193ac7ce7/hls/e20033c4ad8e580cc820a11193ac7ce7_00012.ts",
        "/video/e/2/0/e20033c4ad8e580cc820a11193ac7ce7/hls/e20033c4ad8e580cc820a11193ac7ce7_00013.ts",
        "/video/e/2/0/e20033c4ad8e580cc820a11193ac7ce7/hls/e20033c4ad8e580cc820a11193ac7ce7_00014.ts",
        "/video/e/2/0/e20033c4ad8e580cc820a11193ac7ce7/hls/e20033c4ad8e580cc820a11193ac7ce7_00015.ts",
        "/video/e/2/0/e20033c4ad8e580cc820a11193ac7ce7/hls/e20033c4ad8e580cc820a11193ac7ce7_00016.ts",
        "/video/e/2/0/e20033c4ad8e580cc820a11193ac7ce7/hls/e20033c4ad8e580cc820a11193ac7ce7_00017.ts",
        "/video/e/2/0/e20033c4ad8e580cc820a11193ac7ce7/hls/e20033c4ad8e580cc820a11193ac7ce7_00018.ts",
        "/video/e/2/0/e20033c4ad8e580cc820a11193ac7ce7/hls/e20033c4ad8e580cc820a11193ac7ce7_00019.ts",
        "/video/e/2/0/e20033c4ad8e580cc820a11193ac7ce7/hls/e20033c4ad8e580cc820a11193ac7ce7_00020.ts",
        "/video/e/2/0/e20033c4ad8e580cc820a11193ac7ce7/hls/e20033c4ad8e580cc820a11193ac7ce7_00021.ts",
        "/video/e/2/0/e20033c4ad8e580cc820a11193ac7ce7/hls/e20033c4ad8e580cc820a11193ac7ce7_00022.ts",
        "/video/e/2/0/e20033c4ad8e580cc820a11193ac7ce7/hls/e20033c4ad8e580cc820a11193ac7ce7_00023.ts",
        "/video/e/2/0/e20033c4ad8e580cc820a11193ac7ce7/hls/e20033c4ad8e580cc820a11193ac7ce7_00024.ts",
        "/video/e/2/0/e20033c4ad8e580cc820a11193ac7ce7/hls/e20033c4ad8e580cc820a11193ac7ce7_00025.ts",
        "/video/e/2/0/e20033c4ad8e580cc820a11193ac7ce7/hls/e20033c4ad8e580cc820a11193ac7ce7_00026.ts",
        "/video/e/2/0/e20033c4ad8e580cc820a11193ac7ce7/hls/e20033c4ad8e580cc820a11193ac7ce7_00027.ts",
        "/video/e/2/0/e20033c4ad8e580cc820a11193ac7ce7/hls/e20033c4ad8e580cc820a11193ac7ce7_00028.ts",
        "/video/e/2/0/e20033c4ad8e580cc820a11193ac7ce7/hls/e20033c4ad8e580cc820a11193ac7ce7_00029.ts",
        "/video/e/2/0/e20033c4ad8e580cc820a11193ac7ce7/hls/e20033c4ad8e580cc820a11193ac7ce7_00030.ts",
        "/video/e/2/0/e20033c4ad8e580cc820a11193ac7ce7/hls/e20033c4ad8e580cc820a11193ac7ce7_00031.ts",
        "/video/e/2/0/e20033c4ad8e580cc820a11193ac7ce7/hls/e20033c4ad8e580cc820a11193ac7ce7_00032.ts",
        "/video/e/2/0/e20033c4ad8e580cc820a11193ac7ce7/hls/e20033c4ad8e580cc820a11193ac7ce7_00033.ts",
        "/video/e/2/0/e20033c4ad8e580cc820a11193ac7ce7/hls/e20033c4ad8e580cc820a11193ac7ce7_00034.ts",
        "/video/e/2/0/e20033c4ad8e580cc820a11193ac7ce7/hls/e20033c4ad8e580cc820a11193ac7ce7_00035.ts",
        "/video/e/2/0/e20033c4ad8e580cc820a11193ac7ce7/hls/e20033c4ad8e580cc820a11193ac7ce7_00036.ts"
    ]
} ]);
db.getCollection("media_video_course").insert([ {
    _id: "97f5e9e1bddfce0ad8bcf6434e26849a",
    _class: "com.xuecheng.framework.domain.media.MediaVideoCourse",
    courseid: "402885816240d276016240f7e5000002",
    chapter: "402885816240d2760162416df996000d",
    fileId: "a53c0361837e18e38a89a661c84ab4bf",
    processType: "302002",
    processStatus: "303002",
    "hls_m3u8": "/video/a/5/3/a53c0361837e18e38a89a661c84ab4bf/hls/a53c0361837e18e38a89a661c84ab4bf.m3u8",
    "hls_ts_list": [
        "/video/a/5/3/a53c0361837e18e38a89a661c84ab4bf/hls/a53c0361837e18e38a89a661c84ab4bf_00000.ts",
        "/video/a/5/3/a53c0361837e18e38a89a661c84ab4bf/hls/a53c0361837e18e38a89a661c84ab4bf_00001.ts",
        "/video/a/5/3/a53c0361837e18e38a89a661c84ab4bf/hls/a53c0361837e18e38a89a661c84ab4bf_00002.ts",
        "/video/a/5/3/a53c0361837e18e38a89a661c84ab4bf/hls/a53c0361837e18e38a89a661c84ab4bf_00003.ts",
        "/video/a/5/3/a53c0361837e18e38a89a661c84ab4bf/hls/a53c0361837e18e38a89a661c84ab4bf_00004.ts",
        "/video/a/5/3/a53c0361837e18e38a89a661c84ab4bf/hls/a53c0361837e18e38a89a661c84ab4bf_00005.ts",
        "/video/a/5/3/a53c0361837e18e38a89a661c84ab4bf/hls/a53c0361837e18e38a89a661c84ab4bf_00006.ts",
        "/video/a/5/3/a53c0361837e18e38a89a661c84ab4bf/hls/a53c0361837e18e38a89a661c84ab4bf_00007.ts",
        "/video/a/5/3/a53c0361837e18e38a89a661c84ab4bf/hls/a53c0361837e18e38a89a661c84ab4bf_00008.ts",
        "/video/a/5/3/a53c0361837e18e38a89a661c84ab4bf/hls/a53c0361837e18e38a89a661c84ab4bf_00009.ts",
        "/video/a/5/3/a53c0361837e18e38a89a661c84ab4bf/hls/a53c0361837e18e38a89a661c84ab4bf_00010.ts",
        "/video/a/5/3/a53c0361837e18e38a89a661c84ab4bf/hls/a53c0361837e18e38a89a661c84ab4bf_00011.ts",
        "/video/a/5/3/a53c0361837e18e38a89a661c84ab4bf/hls/a53c0361837e18e38a89a661c84ab4bf_00012.ts",
        "/video/a/5/3/a53c0361837e18e38a89a661c84ab4bf/hls/a53c0361837e18e38a89a661c84ab4bf_00013.ts",
        "/video/a/5/3/a53c0361837e18e38a89a661c84ab4bf/hls/a53c0361837e18e38a89a661c84ab4bf_00014.ts",
        "/video/a/5/3/a53c0361837e18e38a89a661c84ab4bf/hls/a53c0361837e18e38a89a661c84ab4bf_00015.ts",
        "/video/a/5/3/a53c0361837e18e38a89a661c84ab4bf/hls/a53c0361837e18e38a89a661c84ab4bf_00016.ts",
        "/video/a/5/3/a53c0361837e18e38a89a661c84ab4bf/hls/a53c0361837e18e38a89a661c84ab4bf_00017.ts",
        "/video/a/5/3/a53c0361837e18e38a89a661c84ab4bf/hls/a53c0361837e18e38a89a661c84ab4bf_00018.ts",
        "/video/a/5/3/a53c0361837e18e38a89a661c84ab4bf/hls/a53c0361837e18e38a89a661c84ab4bf_00019.ts",
        "/video/a/5/3/a53c0361837e18e38a89a661c84ab4bf/hls/a53c0361837e18e38a89a661c84ab4bf_00020.ts",
        "/video/a/5/3/a53c0361837e18e38a89a661c84ab4bf/hls/a53c0361837e18e38a89a661c84ab4bf_00021.ts",
        "/video/a/5/3/a53c0361837e18e38a89a661c84ab4bf/hls/a53c0361837e18e38a89a661c84ab4bf_00022.ts",
        "/video/a/5/3/a53c0361837e18e38a89a661c84ab4bf/hls/a53c0361837e18e38a89a661c84ab4bf_00023.ts",
        "/video/a/5/3/a53c0361837e18e38a89a661c84ab4bf/hls/a53c0361837e18e38a89a661c84ab4bf_00024.ts",
        "/video/a/5/3/a53c0361837e18e38a89a661c84ab4bf/hls/a53c0361837e18e38a89a661c84ab4bf_00025.ts",
        "/video/a/5/3/a53c0361837e18e38a89a661c84ab4bf/hls/a53c0361837e18e38a89a661c84ab4bf_00026.ts",
        "/video/a/5/3/a53c0361837e18e38a89a661c84ab4bf/hls/a53c0361837e18e38a89a661c84ab4bf_00027.ts",
        "/video/a/5/3/a53c0361837e18e38a89a661c84ab4bf/hls/a53c0361837e18e38a89a661c84ab4bf_00028.ts",
        "/video/a/5/3/a53c0361837e18e38a89a661c84ab4bf/hls/a53c0361837e18e38a89a661c84ab4bf_00029.ts",
        "/video/a/5/3/a53c0361837e18e38a89a661c84ab4bf/hls/a53c0361837e18e38a89a661c84ab4bf_00030.ts",
        "/video/a/5/3/a53c0361837e18e38a89a661c84ab4bf/hls/a53c0361837e18e38a89a661c84ab4bf_00031.ts"
    ]
} ]);
